<svg width="34" height="26" viewBox="0 0 34 26" fill="none" xmlns="http://www.w3.org/2000/svg">
<g id="&#229;&#173;&#166;&#228;&#185;&#160;&#229;&#141;&#161;&#232;&#174;&#190;&#231;&#189;&#174; 1">
<path id="Vector" d="M28.6944 2.50391H3.34031C2.58803 2.50391 1.97974 3.11057 1.97974 3.85976V6.56568H30.0568V9.68954H1.97974V22.1387C1.97974 22.8879 2.58803 23.4946 3.34031 23.4946H22.0643C20.6498 22.3486 19.7463 20.5999 19.7463 18.6393C19.7463 15.1861 22.5556 12.3858 26.0201 12.3858C27.557 12.3858 28.9644 12.9366 30.0568 13.8515V3.85591C30.055 3.11057 29.4467 2.50391 28.6944 2.50391ZM14.5722 17.9094C14.5722 18.2137 14.3436 18.4621 14.0629 18.4621H5.7537C5.47294 18.4621 5.24438 18.2156 5.24438 17.9094V17.5897C5.24438 17.2854 5.47294 17.0369 5.7537 17.0369H14.0629C14.3436 17.0369 14.5722 17.2835 14.5722 17.5897V17.9094ZM14.7576 15.2015C14.7576 15.5058 14.529 15.7543 14.2483 15.7543H5.93907C5.65831 15.7543 5.42975 15.5078 5.42975 15.2015V14.8818C5.42975 14.5775 5.65831 14.3291 5.93907 14.3291H14.2483C14.529 14.3291 14.7576 14.5756 14.7576 14.8818V15.2015Z" fill="currentColor"/>
<path id="Vector_2" d="M27.0007 14.252H25.6114L24.8159 16.0026H27.7944L27.0007 14.252ZM27.0511 23.8816H25.6618L24.8663 22.1309H27.8466L27.0511 23.8816ZM21.6484 18.412V19.8487L23.342 20.6691V17.5915L21.6484 18.412ZM30.9547 18.412V19.8487L29.2611 20.6691V17.5915L30.9547 18.412Z" fill="currentColor"/>
<path id="Vector_3" d="M23.4914 15.1533L22.5088 16.1683L23.1441 17.9864L25.2497 15.8101L23.4914 15.1533ZM29.1731 15.2053L30.1557 16.2203L29.5186 18.0384L27.413 15.8621L29.1731 15.2053ZM23.5148 22.9899L22.5322 21.9749L23.1693 20.1569L25.2749 22.3332L23.5148 22.9899ZM29.1965 22.9379L30.1809 21.9229L29.5438 20.1049L27.4382 22.2812L29.1965 22.9379Z" fill="currentColor"/>
<path id="Subtract" d="M26.3066 15.6191C26.7483 15.6192 27.1857 15.7091 27.5938 15.8838C28.0019 16.0585 28.3731 16.3149 28.6855 16.6377C28.998 16.9607 29.2459 17.3446 29.415 17.7666C29.5842 18.1886 29.6719 18.6409 29.6719 19.0977C29.6719 19.5544 29.5842 20.0067 29.415 20.4287C29.2459 20.8507 28.998 21.2346 28.6855 21.5576C28.3731 21.8805 28.0019 22.1368 27.5938 22.3115C27.1857 22.4862 26.7483 22.5761 26.3066 22.5762C25.8648 22.5762 25.4268 22.4862 25.0186 22.3115C24.6104 22.1368 24.2392 21.8805 23.9268 21.5576C23.6143 21.2346 23.3664 20.8507 23.1973 20.4287C23.0282 20.0067 22.9404 19.5544 22.9404 19.0977C22.9404 18.6409 23.0282 18.1886 23.1973 17.7666C23.3664 17.3446 23.6143 16.9607 23.9268 16.6377C24.2392 16.3148 24.6104 16.0585 25.0186 15.8838C25.4268 15.7091 25.8648 15.6191 26.3066 15.6191ZM26.3066 16.9883C25.7654 16.9883 25.246 17.211 24.8633 17.6064C24.4806 18.0019 24.2656 18.5384 24.2656 19.0977C24.2657 19.6568 24.4807 20.1935 24.8633 20.5889C25.246 20.9842 25.7655 21.2061 26.3066 21.2061C26.8476 21.2059 27.3664 20.984 27.749 20.5889C28.1316 20.1935 28.3466 19.6568 28.3467 19.0977C28.3467 18.5384 28.1317 18.0019 27.749 17.6064C27.3664 17.2111 26.8478 16.9884 26.3066 16.9883Z" fill="currentColor"/>
</g>
</svg>
