<svg t="1760788659540" class="icon" viewBox="0 0 1024 1024" version="1.1" xmlns="http://www.w3.org/2000/svg" p-id="1525" width="200" height="200"><path d="M512 42.666667C252.8 42.666667 42.666667 252.8 42.666667 512s210.133333 469.333333 469.333333 469.333333 469.333333-210.133333 469.333333-469.333333S771.2 42.666667 512 42.666667z m267.264 633.472a33.152 33.152 0 0 1-33.450667 32.725333H277.290667a33.152 33.152 0 0 1-33.450667-32.768v-193.408h535.424v193.450667z m0-241.066667H243.797333V348.8c0-18.048 15.018667-32.725333 33.493334-32.725333H745.813333c18.474667 0 33.450667 14.677333 33.450667 32.725333v86.272z" p-id="1526" data-spm-anchor-id="a313x.search_index.0.i0.68e53a81jE6yD4" class="selected" fill="#597ef7"></path><path d="M628.693333 561.578667h66.986667v65.450666h-66.986667v-65.450666z" p-id="1527"></path></svg>