<svg width="18" height="18" viewBox="0 0 18 18" fill="none" xmlns="http://www.w3.org/2000/svg">
<g id="Vector">
<path id="Vector_2" d="M0 15.3284C0.111406 14.9737 0.376279 14.7679 0.686624 14.5974C1.18795 14.32 1.71542 14.0744 2.17355 13.7368C2.69307 13.3525 3.16256 12.8955 3.62978 12.4453C4.32095 11.7791 4.99166 11.0901 5.67147 10.4114C5.69648 10.3864 5.71807 10.3603 5.74763 10.3296C4.94733 9.52807 4.15044 8.73227 3.36605 7.94783C5.30656 6.00834 7.22319 4.09158 9.12732 2.1896C11.3452 4.40763 13.5836 6.64612 15.8094 8.8721C13.9144 10.7673 11.9989 12.684 10.0868 14.5962C9.31148 13.8209 8.51459 13.0239 7.72793 12.2361C7.67109 12.2634 7.65176 12.2679 7.64039 12.2793C6.63092 13.307 5.61235 14.3268 4.61879 15.3704C4.36074 15.6421 4.16976 15.9821 3.96969 16.3038C3.76393 16.6369 3.57977 16.9836 3.39447 17.3293C3.22963 17.6373 3.0216 17.8931 2.6726 18C2.57939 18 2.48503 18 2.39182 18C1.23683 17.5612 0.439939 16.7642 0.0011368 15.6092C2.24978e-09 15.5159 0 15.4216 0 15.3284ZM12.5457 7.47603C12.4843 7.40896 12.4502 7.36917 12.4138 7.33279C12.0659 6.98491 11.7147 6.6393 11.3714 6.28687C11.2872 6.19933 11.2156 6.17887 11.0974 6.21866C10.346 6.47786 9.59113 6.72684 8.8363 6.97922C8.68283 7.03038 8.52937 7.08268 8.32474 7.15089C8.76696 7.58858 9.17961 7.99785 9.6025 8.41736C8.72376 8.78684 7.85752 9.15063 6.99128 9.51557C6.99583 9.52807 7.00038 9.54058 7.00493 9.55309C8.4839 9.47009 9.964 9.3871 11.443 9.30411C11.4498 9.28706 11.4555 9.27114 11.4623 9.25409C11.0326 8.82776 10.6029 8.40144 10.1561 7.95693C10.9576 7.79549 11.7351 7.63974 12.5457 7.47603ZM7.80523 0C7.98371 0.127329 8.17469 0.239879 8.33611 0.386534C8.60439 0.629824 8.85222 0.893577 9.09776 1.13687C6.84578 3.389 4.60743 5.62749 2.39636 7.83869C2.05873 7.52151 1.69269 7.20205 1.35847 6.85303C1.16294 6.64839 1.18568 6.30165 1.3562 6.06973C1.40849 5.99924 1.47101 5.93672 1.53354 5.87532C3.36377 4.04383 5.19288 2.2112 7.0288 0.386534C7.18113 0.233058 7.38007 0.127329 7.55854 0C7.64039 0 7.72224 0 7.80523 0ZM18 10.441C17.8727 10.6195 17.767 10.8196 17.6146 10.9719C15.7764 12.8204 13.9314 14.661 12.0898 16.5062C11.8681 16.7278 11.6226 16.8381 11.3156 16.7313C11.2247 16.6994 11.1326 16.6449 11.0644 16.5778C10.7473 16.2663 10.4369 15.9468 10.1425 15.6478C12.3808 13.4093 14.6226 11.1674 16.8564 8.93349C17.1701 9.24045 17.5135 9.56673 17.8443 9.90438C17.9181 9.97941 17.9488 10.0965 18 10.1931C18 10.2773 18 10.3591 18 10.441Z" fill="currentColor"/>
</g>
</svg>
