<?xml version="1.0" standalone="no"?><!DOCTYPE svg PUBLIC "-//W3C//DTD SVG 1.1//EN" "http://www.w3.org/Graphics/SVG/1.1/DTD/svg11.dtd"><svg t="1754547250976" class="icon" viewBox="0 0 1024 1024" version="1.1" xmlns="http://www.w3.org/2000/svg" p-id="13564" width="48" height="48" xmlns:xlink="http://www.w3.org/1999/xlink"><path d="M936.96 871.424h-266.24l300.032-45.056c13.312-2.048 22.528-14.336 20.48-27.648-11.264-64.512-84.992-494.592-96.256-559.104-2.048-13.312-14.336-21.504-27.648-19.456L501.76 284.672c-13.312 2.048-21.504 14.336-19.456 27.648l88.064 551.936c0 3.072 2.048 6.144 3.072 9.216H79.872c-6.144 0-10.24 4.096-10.24 10.24s4.096 10.24 10.24 10.24h856.064c6.144 0 10.24-4.096 10.24-10.24s-4.096-12.288-9.216-12.288z m-51.2-172.032l13.312-2.048 53.248 79.872-15.36 3.072-12.288-18.432-43.008 6.144-5.12 21.504-15.36 3.072 24.576-93.184zM717.824 448.512l113.664 123.904L752.64 716.8 638.976 606.208l78.848-157.696z m-165.888-76.8l-5.12 21.504-15.36 3.072 24.576-93.184 13.312-2.048 53.248 79.872-15.36 3.072-13.312-18.432-41.984 6.144zM36.864 871.424H20.48c-6.144 0-10.24 4.096-10.24 10.24s4.096 10.24 10.24 10.24h16.384c6.144 0 10.24-4.096 10.24-10.24s-4.096-10.24-10.24-10.24zM1003.52 871.424h-26.624c-6.144 0-10.24 4.096-10.24 10.24s4.096 10.24 10.24 10.24H1003.52c6.144 0 10.24-4.096 10.24-10.24s-5.12-10.24-10.24-10.24z" p-id="13565" fill="#E74A31"></path><path d="M36.864 516.096c74.752 55.296 329.728 244.736 448.512 332.8 6.144 5.12 14.336 6.144 21.504 4.096l-351.232-430.08c-15.36-18.432-12.288-47.104 6.144-62.464L334.848 215.04l-52.224-37.888c-11.264-8.192-25.6-5.12-33.792 5.12L31.744 483.328c-7.168 10.24-5.12 24.576 5.12 32.768z m56.32-58.368l95.232 16.384-9.216 13.312-21.504-4.096-23.552 35.84 12.288 18.432-9.216 13.312-50.176-81.92 6.144-11.264z" p-id="13566" fill="#E74A31"></path><path d="M104.448 473.088l22.528 33.792 17.408-26.624zM289.792 403.456l-36.864-17.408 12.288 38.912z" p-id="13567" fill="#E74A31"></path><path d="M171.008 409.6l345.088 422.912-185.344-421.888-9.216 8.192-20.48-10.24-31.744 28.672 7.168 21.504-12.288 10.24-27.648-92.16 9.216-8.192 82.944 37.888-27.648-62.464c-9.216-22.528 0-48.128 22.528-58.368L532.48 188.416l-40.96-48.128c-8.192-10.24-23.552-11.264-33.792-3.072L175.104 375.808c-10.24 9.216-12.288 23.552-4.096 33.792z" p-id="13568" fill="#E74A31"></path><path d="M319.488 334.848l225.28 510.976s0 1.024 1.024 1.024L471.04 377.856l-12.288 6.144-17.408-14.336-37.888 19.456 2.048 22.528-14.336 7.168-5.12-96.256 11.264-6.144 72.704 57.344-9.216-59.392c-4.096-23.552 12.288-46.08 35.84-51.2l231.424-40.96-28.672-62.464c-5.12-12.288-19.456-17.408-31.744-12.288L331.776 304.128c-12.288 5.12-17.408 19.456-12.288 30.72z" p-id="13569" fill="#E74A31"></path><path d="M431.104 361.472L399.36 334.848l3.072 40.96zM555.008 359.424l31.744-5.12-22.528-34.816zM894.976 715.776l-9.216 38.912 31.744-5.12z" p-id="13570" fill="#E74A31"></path></svg>