<svg width="20" height="20" viewBox="0 0 20 20" fill="none" xmlns="http://www.w3.org/2000/svg">
<g id="Iconly/Bold/Tick Square">
<g id="Iconly/Bold/Tick Square_2">
<g id="Tick Square">
<path id="Tick Square_2" d="M13.6169 1.6665C16.4418 1.6666 18.3337 3.65017 18.3337 6.6001V13.4087C18.3337 16.3495 16.4418 18.3334 13.6169 18.3335H6.39136C3.56657 18.3333 1.66675 16.3494 1.66675 13.4087V6.6001C1.66675 3.65023 3.56657 1.66669 6.39136 1.6665H13.6169ZM13.4832 7.49951C13.1998 7.2165 12.7332 7.21637 12.45 7.49951L9.00854 10.9419L7.55054 9.48291C7.2672 9.19958 6.79969 9.19958 6.51636 9.48291C6.23322 9.76612 6.23343 10.2245 6.51636 10.5161L8.49976 12.4917C8.64142 12.6334 8.82521 12.6997 9.00854 12.6997C9.20014 12.6997 9.38352 12.6333 9.52515 12.4917L13.4832 8.53271C13.7664 8.24937 13.7665 7.79114 13.4832 7.49951Z" fill="currentColor"/>
</g>
</g>
</g>
</svg>
