<svg xmlns="http://www.w3.org/2000/svg" width="33.79" height="34.259" viewBox="0 0 33.79 34.259">
  <defs>
    <style>
    </style>
  </defs>
  <path id="路径_61" data-name="路径 61" class="cls-1" d="M.788,33.6A2.448,2.448,0,0,1,.6,30.2l.011-.012.1-.108.014-.015,12.939-12.94L.723,4.187A2.456,2.456,0,0,1,4.059.587L4.073.6l.107.1A.116.116,0,0,1,4.2.713L17.134,13.652,29.584,1.2a2.456,2.456,0,0,1,3.6,3.343l-.007.008-.1.107-.016.018L20.607,17.125l12.451,12.45a2.456,2.456,0,0,1-3.341,3.6l-.013-.011-.107-.1-.014-.013L17.134,20.6,4.2,33.539A2.455,2.455,0,0,1,.788,33.6Z" transform="translate(0)"/>
</svg>
