<?xml version="1.0" standalone="no"?><!DOCTYPE svg PUBLIC "-//W3C//DTD SVG 1.1//EN" "http://www.w3.org/Graphics/SVG/1.1/DTD/svg11.dtd"><svg t="1754553017641" class="icon" viewBox="0 0 1024 1024" version="1.1" xmlns="http://www.w3.org/2000/svg" p-id="32725" xmlns:xlink="http://www.w3.org/1999/xlink" width="128" height="128"><path d="M0 512a512 512 0 1 0 1024 0 512 512 0 0 0-1024 0z" fill="#E60012" p-id="32726"></path><path d="M424.661333 447.061333L366.208 277.333333l-58.453333 169.685334h-186.88l151.04 103.68-58.112 168.832 152.405333-104.405334 152.234667 104.405334-58.112-168.96 151.509333-103.552-187.178667 0.042666z m446.421334-43.52c-17.706667 0-32 13.482667-32 30.165334 0 16.597333 14.293333 30.165333 32 30.165333s32-13.525333 32-30.165333a29.610667 29.610667 0 0 0-9.258667-21.418667 32.853333 32.853333 0 0 0-22.741333-8.789333z m-101.461334-104.746666a31.146667 31.146667 0 0 0-17.408 4.693333 33.365333 33.365333 0 0 0-12.373333 13.738667 29.269333 29.269333 0 0 0-1.92 17.664c1.237333 5.973333 4.266667 11.349333 8.618667 15.317333a33.578667 33.578667 0 0 0 34.986666 6.613333 28.970667 28.970667 0 0 0 14.08-10.666666 31.317333 31.317333 0 0 0 5.76-17.194667c0-16.554667-14.122667-29.994667-31.744-30.165333z m0 387.584c-17.536-0.170667-31.957333 13.056-32.298666 29.610666-0.256 16.512 13.610667 30.293333 31.189333 30.677334 17.536 0.426667 32.256-12.501333 32.853333-29.013334a29.653333 29.653333 0 0 0-8.832-21.973333 33.024 33.024 0 0 0-22.912-9.301333z m101.461334-112.810667c-17.706667 0-32 13.482667-32 30.165333 0 16.64 14.293333 30.165333 32 30.165334s32-13.525333 32-30.165334a29.610667 29.610667 0 0 0-9.258667-21.418666 32.810667 32.810667 0 0 0-22.741333-8.789334v0.042667z" fill="#FFDE00" p-id="32727"></path></svg>