<svg width="24" height="24" viewBox="0 0 24 24" fill="none" xmlns="http://www.w3.org/2000/svg">
<g id="&#230;&#148;&#182;&#232;&#151;&#143;&#229;&#164;&#185;">
<path id="Vector" d="M13.2364 21.2888C12.58 21.0552 11.4192 21.0556 10.7636 21.2888L6.7192 22.7268C5.35921 23.2108 4.15121 22.3312 4.19081 20.89L4.30881 16.5992C4.32801 15.9024 3.96881 14.7992 3.54481 14.2472L0.927206 10.8452C0.0472061 9.70121 0.510006 8.28041 1.89281 7.87321L6.01001 6.65921C6.67841 6.46201 7.61721 5.78001 8.01081 5.20561L10.4376 1.66481C11.2536 0.474411 12.7476 0.475611 13.5624 1.66481L15.9892 5.20561C16.3832 5.78041 17.3224 6.46241 17.99 6.65921L22.1072 7.87281C23.4916 8.28081 23.952 9.70241 23.0728 10.8448L20.4552 14.2472C20.0304 14.7992 19.672 15.9032 19.6912 16.5992L19.8092 20.89C19.8492 22.3328 18.6392 23.21 17.2812 22.7268L13.2364 21.2888Z" fill="currentColor"/>
<path id="Vector_2" d="M12.1448 8.45881C12.0822 8.37288 12.0374 8.27534 12.013 8.17189C11.9886 8.06845 11.985 7.96117 12.0025 7.85632C12.02 7.75148 12.0582 7.65117 12.1149 7.56127C12.1716 7.47136 12.2456 7.39365 12.3327 7.33268C12.4198 7.27171 12.5181 7.2287 12.622 7.20617C12.7259 7.18364 12.8332 7.18203 12.9377 7.20145C13.0422 7.22086 13.1418 7.26091 13.2306 7.31924C13.3195 7.37758 13.3958 7.45304 13.4552 7.54121L14.478 9.00241C14.5989 9.17496 14.7831 9.29283 14.9904 9.33041L16.5432 9.61281C16.6466 9.63162 16.7452 9.6706 16.8335 9.72754C16.9219 9.78447 16.9981 9.85824 17.0579 9.94464C17.1177 10.031 17.1599 10.1284 17.1821 10.2311C17.2043 10.3338 17.206 10.4398 17.1872 10.5432C17.1684 10.6466 17.1294 10.7453 17.0725 10.8336C17.0155 10.9219 16.9418 10.9981 16.8554 11.0579C16.769 11.1177 16.6717 11.1599 16.5689 11.1821C16.4662 11.2043 16.3602 11.206 16.2568 11.1872L14.704 10.9048C14.082 10.7918 13.5298 10.4379 13.1672 9.92001L12.1448 8.45881Z" fill="currentColor"/>
</g>
</svg>
