<svg width="13" height="13" viewBox="0 0 13 13" fill="none" xmlns="http://www.w3.org/2000/svg">
<g id="&#229;&#164;&#141;&#229;&#136;&#182; 1">
<path id="Vector" d="M9.14062 2.4375H2.23438C1.96511 2.43782 1.70697 2.54493 1.51658 2.73533C1.32618 2.92572 1.21907 3.18386 1.21875 3.45312V11.1719C1.21875 11.7321 1.67456 12.1875 2.23438 12.1875H9.14062C9.70084 12.1875 10.1562 11.7321 10.1562 11.1719V3.45312C10.1562 2.89331 9.70084 2.4375 9.14062 2.4375ZM9.34375 11.1719C9.34375 11.2836 9.25234 11.375 9.14062 11.375H2.23438C2.1805 11.375 2.12884 11.3536 2.09074 11.3155C2.05265 11.2774 2.03125 11.2257 2.03125 11.1719V3.45312C2.03125 3.39925 2.05265 3.34759 2.09074 3.30949C2.12884 3.2714 2.1805 3.25 2.23438 3.25H9.14062C9.1945 3.25 9.24616 3.2714 9.28426 3.30949C9.32235 3.34759 9.34375 3.39925 9.34375 3.45312V11.1719Z" fill="currentColor"/>
<path id="Vector_2" d="M10.7656 0.8125H3.85938C3.75163 0.8125 3.6483 0.855301 3.57211 0.931488C3.49593 1.00767 3.45312 1.11101 3.45312 1.21875C3.45312 1.32649 3.49593 1.42983 3.57211 1.50601C3.6483 1.5822 3.75163 1.625 3.85938 1.625H10.7656C10.8195 1.625 10.8712 1.6464 10.9093 1.68449C10.9473 1.72259 10.9688 1.77425 10.9688 1.82812V9.54688C10.9688 9.65462 11.0116 9.75795 11.0877 9.83414C11.1639 9.91032 11.2673 9.95312 11.375 9.95312C11.4827 9.95312 11.5861 9.91032 11.6623 9.83414C11.7384 9.75795 11.7812 9.65462 11.7812 9.54688V1.82812C11.7812 1.26831 11.3258 0.8125 10.7656 0.8125Z" fill="currentColor"/>
<path id="Vector_3" d="M7.71875 4.57031H3.65625C3.54851 4.57031 3.44517 4.61311 3.36899 4.6893C3.2928 4.76549 3.25 4.86882 3.25 4.97656C3.25 5.08431 3.2928 5.18764 3.36899 5.26382C3.44517 5.34001 3.54851 5.38281 3.65625 5.38281H7.71875C7.82649 5.38281 7.92983 5.34001 8.00601 5.26382C8.0822 5.18764 8.125 5.08431 8.125 4.97656C8.125 4.86882 8.0822 4.76549 8.00601 4.6893C7.92983 4.61311 7.82649 4.57031 7.71875 4.57031ZM7.71875 6.60156H3.65625C3.54851 6.60156 3.44517 6.64436 3.36899 6.72055C3.2928 6.79674 3.25 6.90007 3.25 7.00781C3.25 7.11556 3.2928 7.21889 3.36899 7.29508C3.44517 7.37126 3.54851 7.41406 3.65625 7.41406H7.71875C7.82649 7.41406 7.92983 7.37126 8.00601 7.29508C8.0822 7.21889 8.125 7.11556 8.125 7.00781C8.125 6.90007 8.0822 6.79674 8.00601 6.72055C7.92983 6.64436 7.82649 6.60156 7.71875 6.60156ZM6.09375 8.61575H3.65625C3.54851 8.61575 3.44517 8.65855 3.36899 8.73474C3.2928 8.81092 3.25 8.91426 3.25 9.022C3.25 9.12974 3.2928 9.23308 3.36899 9.30926C3.44517 9.38545 3.54851 9.42825 3.65625 9.42825H6.09375C6.20149 9.42825 6.30483 9.38545 6.38101 9.30926C6.4572 9.23308 6.5 9.12974 6.5 9.022C6.5 8.91426 6.4572 8.81092 6.38101 8.73474C6.30483 8.65855 6.20149 8.61575 6.09375 8.61575Z" fill="currentColor"/>
</g>
</svg>
