<svg t="1761659194571" class="icon" viewBox="0 0 1024 1024" version="1.1" xmlns="http://www.w3.org/2000/svg" p-id="11826" id="mx_n_1761659194573" width="200" height="200"><path d="M512 608c92.16 0 192-134.336 192-256a192 192 0 1 0-384 0c0 121.664 99.84 256 192 256z m0 64c-141.44 0-256-178.56-256-320a256 256 0 1 1 512 0c0 141.44-114.56 320-256 320z" fill="#ffffff" p-id="11827"></path><path d="M255.744 392.576C255.872 389.76 256 386.88 256 384c0-26.88-8.32-49.92-20.032-59.392A12.8 12.8 0 0 0 236.8 320a275.2 275.2 0 0 1 550.4 0 12.8 12.8 0 0 0 0.832 4.608C776.32 334.08 768 357.12 768 384c0 35.328 14.336 64 32 64s32-28.672 32-64c0-26.88-8.32-49.92-20.032-59.392A12.8 12.8 0 0 0 812.8 320a300.8 300.8 0 0 0-601.6 0 12.8 12.8 0 0 0 0.832 4.608C200.32 334.08 192 357.12 192 384c0 35.328 14.336 64 32 64 10.88 0 20.48-10.88 26.24-27.392 94.464 71.04 180.608 116.288 258.624 135.808a12.8 12.8 0 1 0 6.272-24.832c-77.056-19.2-163.584-65.536-259.392-139.008zM985.6 989.824l1.536 31.68h-960l1.472-31.68c0.64-14.336 0.768-25.088 0.704-46.72-0.192-47.808 1.408-65.856 11.776-91.136 8.96-21.888 23.808-42.368 46.592-64.32 36.736-35.52 167.232-96.64 258.24-127.936 8.96-3.072 37.12 7.232 62.848 40.32 13.824 17.728 44.672 38.272 90.368 63.872 45.824-25.6 75.392-47.104 90.368-63.872 1.792-1.92 38.464-41.984 48.192-38.016 5.184 2.176 37.312 12.928 50.304 17.6 27.904 10.048 52.48 19.136 75.968 28.16 21.248 8.32 40.576 16.128 58.048 23.68 48.128 20.992 79.808 38.4 95.552 55.36 52.736 57.024 63.04 94.72 68.032 203.008z m-895.68-28.864h833.408c-4.8-70.08-14.464-94.4-50.24-132.992-7.808-8.448-35.072-23.488-75.2-40.96-16.64-7.168-35.328-14.72-55.744-22.656a2644.48 2644.48 0 0 0-58.56-21.824c1.088 11.776 0.768 23.872-2.24 36.096-2.816 11.84-10.88 33.536-23.168 64.32l-2.432 5.952c-5.504 13.696-11.52 27.904-17.28 42.048a1616 1616 0 0 1-7.936 18.56l-17.984 42.048-113.408-117.696-113.408 117.76-17.92-42.112-7.936-18.56c-5.952-14.08-11.712-28.352-17.28-42.048-1.28-2.944-1.28-2.944-2.368-5.952-12.352-30.72-20.352-52.48-23.232-64.32a106.24 106.24 0 0 1-1.536-42.688c-76.032 30.528-162.816 73.088-185.728 95.232-17.088 16.576-27.136 30.208-32.576 43.648-6.208 15.36-7.424 28.288-7.232 68.096v18.048z m355.072-158.144c-30.72-18.496-53.824-35.392-70.4-50.88a46.528 46.528 0 0 0 1.28 12.544c1.792 7.68 9.472 28.352 20.48 55.936l2.432 5.76c2.24 5.76 4.608 11.52 7.04 17.28l39.168-40.64z m178.752-50.944c-16.512 15.552-39.68 32.384-70.528 50.944l39.36 40.704c2.368-5.824 4.672-11.648 7.04-17.28l2.24-5.76c11.2-27.648 18.752-48.256 20.608-56a46.912 46.912 0 0 0 1.28-12.608z" fill="#ffffff" p-id="11828"></path></svg>