<svg width="17" height="14" viewBox="0 0 17 14" fill="none" xmlns="http://www.w3.org/2000/svg">
<g id="&#228;&#184;&#139;&#232;&#189;&#189; (1) 1" clip-path="url(#clip0_29222_2088)">
<path id="Vector" d="M15.2778 14H1.27778C1.0715 14 0.873668 13.9181 0.727806 13.7722C0.581944 13.6263 0.5 13.4285 0.5 13.2222V9.33333H2.05556V12.4444H14.5V9.33333H16.0556V13.2222C16.0556 13.4285 15.9736 13.6263 15.8278 13.7722C15.6819 13.9181 15.4841 14 15.2778 14ZM12.7166 4.89456C12.5707 4.74874 12.3729 4.66683 12.1667 4.66683C11.9604 4.66683 11.7626 4.74874 11.6168 4.89456L9.05556 7.45578V0.777778C9.05556 0.571498 8.97361 0.373667 8.82775 0.227806C8.68189 0.0819442 8.48406 0 8.27778 0C8.0715 0 7.87367 0.0819442 7.72781 0.227806C7.58194 0.373667 7.5 0.571498 7.5 0.777778V7.45578L4.93878 4.89456C4.79209 4.75288 4.59562 4.67448 4.39169 4.67625C4.18776 4.67803 3.99268 4.75982 3.84847 4.90403C3.70427 5.04824 3.62247 5.24331 3.6207 5.44724C3.61893 5.65117 3.69732 5.84764 3.839 5.99433L7.72789 9.88322C7.80014 9.95565 7.88597 10.0131 7.98046 10.0523C8.07495 10.0915 8.17625 10.1117 8.27856 10.1117C8.38086 10.1117 8.48216 10.0915 8.57665 10.0523C8.67115 10.0131 8.75697 9.95565 8.82922 9.88322L12.7181 5.99433C12.8637 5.84827 12.9453 5.65036 12.9451 5.44412C12.9448 5.23788 12.8626 5.0402 12.7166 4.89456Z" fill="currentColor"/>
</g>
<defs>
<clipPath id="clip0_29222_2088">
<rect width="15.5449" height="14" fill="currentColor" transform="translate(0.5)"/>
</clipPath>
</defs>
</svg>
