<svg width="21" height="21" viewBox="0 0 21 21" fill="none" xmlns="http://www.w3.org/2000/svg">
<g id="Group 649">
<path id="Vector" d="M10.4999 1.43379C11.3033 1.43379 12.0888 1.67205 12.7568 2.11843C13.4249 2.56481 13.9456 3.19927 14.253 3.94158C14.5605 4.68389 14.641 5.50071 14.4842 6.28874C14.3275 7.07676 13.9406 7.80062 13.3724 8.36875C12.8043 8.93689 12.0804 9.3238 11.2924 9.48055C10.5044 9.6373 9.68756 9.55685 8.94525 9.24937C8.20294 8.9419 7.56848 8.42121 7.12209 7.75315C6.67571 7.08509 6.43746 6.29967 6.43746 5.4962C6.43746 4.41878 6.86546 3.38549 7.62731 2.62364C8.38916 1.86179 9.42245 1.43379 10.4999 1.43379ZM10.4999 0C9.41282 0 8.35018 0.322346 7.44634 0.926276C6.54249 1.53021 5.83803 2.3886 5.42204 3.39289C5.00604 4.39719 4.8972 5.5023 5.10927 6.56845C5.32134 7.63461 5.84481 8.61394 6.61346 9.3826C7.38212 10.1513 8.36145 10.6747 9.42761 10.8868C10.4938 11.0989 11.5989 10.99 12.6032 10.574C13.6075 10.158 14.4659 9.45357 15.0698 8.54972C15.6737 7.64588 15.9961 6.58324 15.9961 5.4962C15.9961 4.03852 15.417 2.64054 14.3863 1.6098C13.3555 0.579062 11.9575 0 10.4999 0Z" fill="#9069E6"/>
<path id="Union" d="M10.5 10.3848C13.109 10.3848 15.6112 11.4217 17.4561 13.2666C19.3008 15.1115 20.3379 17.6137 20.3379 20.2227C20.3378 20.4284 20.2558 20.6259 20.1104 20.7715C19.9999 20.8819 19.8592 20.9552 19.708 20.9844C19.6945 20.9873 19.6808 20.9882 19.667 20.9902C19.6504 20.9925 19.6339 20.9949 19.6172 20.9961C19.6052 20.9968 19.5932 21 19.5811 21H1.41992C1.40758 21 1.39497 20.9968 1.38281 20.9961C1.36543 20.9948 1.34823 20.9927 1.33105 20.9902C1.3176 20.9882 1.30417 20.9872 1.29102 20.9844C1.14037 20.9551 1.00077 20.8815 0.890625 20.7715C0.745056 20.6259 0.663174 20.4285 0.663086 20.2227C0.663086 17.6137 1.69921 15.1115 3.54395 13.2666C5.38879 11.4218 7.89099 10.3848 10.5 10.3848ZM10.5 11.9385C8.30368 11.9409 6.19757 12.8142 4.64453 14.3672C3.19126 15.8206 2.33367 17.7581 2.22754 19.8008H18.7725C18.6663 17.7581 17.8088 15.8206 16.3555 14.3672C14.8024 12.8141 12.6964 11.9409 10.5 11.9385Z" fill="currentColor"/>
<path id="Vector 30" d="M10.4998 18.4005L10.4998 14.0991" stroke="#9069E6" stroke-width="1.43379" stroke-linecap="square"/>
</g>
</svg>
