<svg width="23" height="23" viewBox="0 0 23 23" fill="none" xmlns="http://www.w3.org/2000/svg">
<g id="&#229;&#155;&#162;&#233;&#152;&#159; 1">
<path id="Vector" d="M14.1494 10.9275C15.1538 10.1436 15.8027 8.92901 15.8027 7.56437C15.8027 5.20575 13.8713 3.28662 11.4965 3.28662C9.12173 3.28662 7.19031 5.20577 7.19031 7.56437C7.19031 8.92901 7.83912 10.1436 8.84364 10.9275C6.19635 11.9784 4.31967 14.5469 4.31967 17.5459V18.9714C4.31967 19.3657 4.64075 19.6845 5.03714 19.6845H17.9558C18.3523 19.6845 18.6733 19.3657 18.6733 18.9714V17.5459C18.6733 14.5458 16.7966 11.9784 14.1494 10.9275ZM8.38132 7.55874C8.38132 5.85182 9.77835 4.4642 11.4965 4.4642C13.2146 4.4642 14.6117 5.85184 14.6117 7.55874C14.6117 9.26523 13.2146 10.6533 11.4965 10.6533C9.77835 10.6533 8.38132 9.26579 8.38132 7.55874ZM17.594 18.5147H5.3984V17.7575C5.3984 14.4174 8.13392 11.6997 11.4971 11.6997C14.859 11.6997 17.594 14.4174 17.594 17.7575V18.5147ZM5.93443 11.5886L6.07459 11.5551C6.37556 11.4551 6.58995 11.1927 6.58995 10.8845C6.58995 10.5868 6.38951 10.3323 6.10536 10.2251C5.33692 9.87826 4.84117 9.11721 4.84117 8.27852C4.84117 7.32817 5.66701 6.52751 6.53137 6.24996C6.68269 5.78594 6.91159 5.35653 7.20305 4.97685C7.25396 4.89316 7.30742 4.81104 7.36335 4.73061C7.30531 4.72783 7.25003 4.71336 7.19033 4.71336C5.21191 4.71336 3.60164 6.31249 3.60164 8.27854C3.60164 9.18091 3.94776 10.0269 4.5352 10.6701C2.66686 11.6316 1.44849 13.5546 1.44849 15.7301V16.8329C1.44849 17.2271 1.76959 17.5459 2.16598 17.5459H3.45187C3.45187 17.0574 3.50218 16.7442 3.59652 16.2834H2.68806V15.7302C2.68806 13.7595 4.02145 12.0683 5.93445 11.5886H5.93443ZM18.45 10.6701C19.0374 10.0268 19.3835 9.18089 19.3835 8.27852C19.3835 6.31245 17.7738 4.71271 15.7948 4.71271C15.7351 4.71271 15.6798 4.72729 15.6218 4.73003C15.6777 4.81045 15.7312 4.89257 15.7821 4.97627C16.0736 5.35595 16.3024 5.78536 16.4532 6.24942C17.3176 6.52686 18.2629 7.32764 18.2629 8.27796C18.2629 9.11667 17.7665 9.87825 16.9987 10.2245C16.7145 10.3317 16.514 10.5863 16.514 10.884C16.514 11.1922 16.7291 11.4546 17.0294 11.5545L17.1696 11.588C19.0832 12.0682 20.416 13.759 20.416 15.7301V16.2834H19.3875C19.4824 16.7441 19.5321 17.0573 19.5321 17.5459H20.818C21.2151 17.5459 21.5356 17.2271 21.5356 16.8329V15.7301C21.5367 13.5546 20.3183 11.6316 18.45 10.6701Z" fill="currentColor"/>
<path id="Vector 25" d="M10.2222 15.759L11.4999 13.6294L12.7777 15.759L11.4999 17.0368L10.2222 15.759Z" fill="#D560FF"/>
</g>
</svg>
