<svg width="18" height="18" viewBox="0 0 18 18" fill="none" xmlns="http://www.w3.org/2000/svg">
<g id="logo 1" clip-path="url(#clip0_134_1756)">
<g id="Clip path group">
<mask id="mask0_134_1756" style="mask-type:luminance" maskUnits="userSpaceOnUse" x="0" y="0" width="106" height="18">
<g id="clip0">
<path id="Vector" d="M105.677 0H0V17.4194H105.677V0Z" fill="white"/>
</g>
</mask>
<g mask="url(#mask0_134_1756)">
<g id="Group">
<path id="Vector_2" d="M0 13.7368V17.4194H10.3553L11.9225 13.7368H0Z" fill="#0099FA"/>
<path id="Vector_3" d="M0 9.28262V13.0237L13.0138 11.1999L14.7087 7.21338L0 9.28262Z" fill="#0099FA"/>
<path id="Vector_4" d="M0 4.68803V8.54599L15.8928 4.45421L17.7851 0L0 4.68803Z" fill="#0099FA"/>
<path id="Vector_5" d="M9.57762 11.4103C9.68963 11.3925 9.79171 11.335 9.86533 11.2483C9.93902 11.1615 9.97949 11.051 9.97949 10.9368C9.97949 10.8226 9.93902 10.7122 9.86533 10.6254C9.79171 10.5386 9.68963 10.4811 9.57762 10.4634C9.46562 10.4811 9.3636 10.5386 9.28991 10.6254C9.21629 10.7122 9.17576 10.8226 9.17576 10.9368C9.17576 11.051 9.21629 11.1615 9.28991 11.2483C9.3636 11.335 9.46562 11.3925 9.57762 11.4103Z" fill="#0099FA"/>
</g>
</g>
</g>
</g>
<defs>
<clipPath id="clip0_134_1756">
<rect width="18" height="18" fill="white"/>
</clipPath>
</defs>
</svg>
