<svg width="23" height="22" viewBox="0 0 23 22" fill="none" xmlns="http://www.w3.org/2000/svg">
<g id="Group 648">
<path id="Intersect" d="M21.5459 4.5C22.3329 4.60576 22.9421 5.28023 22.9424 6.0957V8.42969C22.9423 9.3129 22.2278 10.0319 21.3467 10.041C21.356 10.1104 21.3623 10.1811 21.3623 10.2529V19.5479C21.3623 20.4259 20.6485 21.1405 19.7705 21.1406H3.22949C2.35141 21.1405 1.63675 20.426 1.63672 19.5479V10.2529C1.63672 10.181 1.64404 10.1104 1.65332 10.041C0.772228 10.0319 0.057638 9.31288 0.0576172 8.42969V6.09668C0.0576172 5.28093 0.666845 4.60573 1.4541 4.5H21.5459ZM3.22949 10.042C3.11532 10.0421 3.01855 10.1388 3.01855 10.2529V19.5479C3.01859 19.662 3.11535 19.7587 3.22949 19.7588H10.8105V10.042H3.22949ZM12.1924 10.042V19.7588H19.7705C19.8846 19.7586 19.9814 19.662 19.9814 19.5479V10.2529C19.9814 10.1388 19.8846 10.0421 19.7705 10.042H12.1924ZM1.66992 5.86621C1.54313 5.86621 1.43971 5.96897 1.43945 6.0957V8.42969C1.43949 8.55661 1.54299 8.66018 1.66992 8.66016H10.8105V5.86621H4.86426C4.85577 5.86652 4.84736 5.86811 4.83887 5.86816C4.83021 5.86816 4.82113 5.86654 4.8125 5.86621H1.66992ZM12.1924 5.86621V8.66016H21.3301C21.457 8.66016 21.5605 8.55661 21.5605 8.42969V6.09668C21.5605 5.96973 21.457 5.86621 21.3301 5.86621H18.1875C18.1789 5.86652 18.1698 5.86816 18.1611 5.86816C18.1526 5.86813 18.1442 5.86656 18.1357 5.86621H12.1924Z" fill="currentColor"/>
<path id="Vector 26" d="M3.55762 1.5C3.55762 0.5 4.05762 0 4.55762 0C5.05762 0 8.05762 2.5 8.05762 2.5H4.05762C3.55762 2.5 3.55762 1.93663 3.55762 1.50001V1.5Z" fill="#D560FF"/>
<path id="Vector 27" d="M19.4375 1.5C19.4375 0.5 18.9375 0 18.4375 0C17.9375 0 14.9375 2.5 14.9375 2.5H18.9375C19.4375 2.5 19.4375 1.93663 19.4375 1.50001V1.5Z" fill="#D560FF"/>
</g>
</svg>
