<svg xmlns="http://www.w3.org/2000/svg" width="38" height="38.001" viewBox="0 0 38 38.001">
  <defs>
    <style>
      .cls-1, .cls-2 {
        fill: #ff5045;
      }

      .cls-1 {
        opacity: 0.2;
      }
    </style>
  </defs>
  <g id="组_98" data-name="组 98" transform="translate(-39 -19)">
    <path id="路径_78" data-name="路径 78" class="cls-1" d="M25.041,42.442a19,19,0,1,1,19-19A19,19,0,0,1,25.041,42.442Z" transform="translate(32.959 14.559)"/>
    <path id="路径_79" data-name="路径 79" class="cls-2" d="M33.754,17.9a.914.914,0,0,0,0-1.293l-1.941-1.94a.912.912,0,0,0-1.293,0l-5.5,5.5-5.5-5.5a.912.912,0,0,0-1.293,0l-1.941,1.94a.915.915,0,0,0,0,1.293l5.5,5.5-5.5,5.5a.915.915,0,0,0,0,1.293l1.941,1.94a.914.914,0,0,0,1.293,0l5.5-5.5,5.5,5.5a.914.914,0,0,0,1.293,0l1.941-1.94a.914.914,0,0,0,0-1.293l-5.5-5.5Z" transform="translate(32.959 14.559)"/>
  </g>
</svg>
