<svg width="18" height="18" viewBox="0 0 18 18" fill="none" xmlns="http://www.w3.org/2000/svg">
<g id="&#229;&#184;&#174;&#229;&#138;&#169; (1) 1" clip-path="url(#clip0_29222_2319)">
<path id="Vector" d="M8.98994 0C10.2369 0 11.4067 0.237989 12.4994 0.713966C13.5922 1.18994 14.5475 1.83352 15.3654 2.64469C16.1832 3.45587 16.8268 4.40782 17.2961 5.50056C17.7654 6.5933 18 7.76313 18 9.01006C18 10.257 17.7654 11.4235 17.2961 12.5095C16.8268 13.5955 16.1832 14.5475 15.3654 15.3654C14.5475 16.1832 13.5922 16.8268 12.4994 17.2961C11.4067 17.7654 10.2369 18 8.98994 18C7.74302 18 6.57654 17.7654 5.4905 17.2961C4.40447 16.8268 3.45251 16.1832 2.63464 15.3654C1.81676 14.5475 1.17318 13.5955 0.703911 12.5095C0.234637 11.4235 0 10.257 0 9.01006C0 7.76313 0.234637 6.5933 0.703911 5.50056C1.17318 4.40782 1.81676 3.45587 2.63464 2.64469C3.45251 1.83352 4.40447 1.18994 5.4905 0.713966C6.57654 0.237989 7.74302 0 8.98994 0ZM9.01006 15.1642C9.35866 15.1642 9.65028 15.0469 9.88492 14.8123C10.1196 14.5777 10.2369 14.2927 10.2369 13.9575C10.2369 13.6089 10.1196 13.3173 9.88492 13.0827C9.65028 12.848 9.35866 12.7307 9.01006 12.7307C8.66145 12.7307 8.36983 12.848 8.1352 13.0827C7.90056 13.3173 7.78324 13.6089 7.78324 13.9575C7.78324 14.2927 7.90056 14.5777 8.1352 14.8123C8.36983 15.0469 8.66145 15.1642 9.01006 15.1642ZM10.0358 10.2168C10.0223 10.0022 10.1564 9.7743 10.438 9.53296C10.7196 9.29162 11.0346 9.02346 11.3832 8.72849C11.7318 8.43352 12.0536 8.10168 12.3486 7.73296C12.6436 7.36425 12.8045 6.93855 12.8313 6.45587C12.8581 5.93296 12.8045 5.44357 12.6704 4.98771C12.5363 4.53184 12.3151 4.13966 12.0067 3.81117C11.6983 3.48268 11.2994 3.22123 10.8101 3.02682C10.3207 2.8324 9.74749 2.7352 9.0905 2.7352C8.27263 2.7352 7.59218 2.87933 7.04916 3.1676C6.50615 3.45587 6.06704 3.80447 5.73184 4.21341C5.39665 4.62235 5.16201 5.04469 5.02793 5.48045C4.89386 5.9162 4.83352 6.28156 4.84693 6.57654C4.86034 6.92514 4.97095 7.17989 5.17877 7.34078C5.38659 7.50168 5.61117 7.58547 5.85251 7.59218C6.09385 7.59888 6.31508 7.53184 6.5162 7.39106C6.71732 7.25028 6.81788 7.04581 6.81788 6.77765C6.81788 6.61676 6.86816 6.41899 6.96872 6.18436C7.06927 5.94972 7.2067 5.72514 7.38101 5.51061C7.55531 5.29609 7.76648 5.11508 8.01453 4.9676C8.26257 4.82011 8.54078 4.74637 8.84916 4.74637C9.45251 4.74637 9.9352 4.89721 10.2972 5.19888C10.6592 5.50056 10.8268 5.87933 10.8 6.3352C10.8 6.56313 10.733 6.7743 10.5989 6.96871C10.4648 7.16313 10.2939 7.35084 10.086 7.53184C9.87821 7.71285 9.65698 7.89385 9.42235 8.07486C9.18771 8.25587 8.96648 8.44357 8.75866 8.63799C8.55084 8.8324 8.37654 9.04358 8.23575 9.27151C8.09497 9.49944 8.01788 9.74749 8.00447 10.0156L8.02458 10.7799C8.02458 10.981 8.11844 11.1721 8.30615 11.3531C8.49385 11.5341 8.7419 11.6313 9.05028 11.6447C9.35866 11.6313 9.60335 11.5307 9.78436 11.343C9.96536 11.1553 10.0492 10.9408 10.0358 10.6994V10.2168Z" fill="currentColor"/>
</g>
<defs>
<clipPath id="clip0_29222_2319">
<rect width="18" height="18" fill="white"/>
</clipPath>
</defs>
</svg>
