<svg width="26" height="26" viewBox="0 0 26 26" fill="none" xmlns="http://www.w3.org/2000/svg">
<g id="&#231;&#173;&#155;&#233;&#128;&#137; 1">
<path id="Vector" d="M16.4033 12.9874L22.113 5.18277C22.4097 4.77709 22.5334 4.27024 22.4569 3.77345C22.3804 3.27666 22.1099 2.83053 21.7048 2.53294C21.3804 2.29487 20.9884 2.16651 20.586 2.1665H5.41394C4.36852 2.1665 3.52081 3.0153 3.52081 4.06234C3.52081 4.46534 3.64892 4.85777 3.88671 5.18277L9.59669 12.9874V23.0207C9.59669 23.4694 9.95988 23.8332 10.4081 23.8332C10.6234 23.833 10.8298 23.7472 10.9819 23.5949C11.134 23.4425 11.2194 23.236 11.2193 23.0207V12.7214C11.2193 12.5489 11.1643 12.3807 11.0624 12.2412L5.19565 4.2224C5.16619 4.18202 5.14846 4.13428 5.14443 4.08446C5.1404 4.03464 5.15022 3.98468 5.17281 3.94009C5.1954 3.8955 5.22987 3.85803 5.27243 3.8318C5.31498 3.80558 5.36395 3.79164 5.41394 3.7915H20.586C20.636 3.79159 20.685 3.80551 20.7276 3.83173C20.7702 3.85795 20.8047 3.89545 20.8272 3.94006C20.8498 3.98468 20.8596 4.03467 20.8555 4.0845C20.8514 4.13434 20.8336 4.18207 20.804 4.2224L14.9372 12.2412C14.8353 12.3806 14.7804 12.5488 14.7804 12.7214V20.73C14.7804 21.1787 15.1436 21.5425 15.5919 21.5425C15.6985 21.5424 15.8041 21.5213 15.9025 21.4804C16.001 21.4396 16.0905 21.3797 16.1658 21.3043C16.2412 21.2288 16.3009 21.1393 16.3417 21.0407C16.3824 20.9422 16.4033 20.8366 16.4033 20.73V12.9874Z" fill="currentColor"/>
</g>
</svg>
