<?xml version="1.0" standalone="no"?><!DOCTYPE svg PUBLIC "-//W3C//DTD SVG 1.1//EN" "http://www.w3.org/Graphics/SVG/1.1/DTD/svg11.dtd"><svg t="1754548145587" class="icon" viewBox="0 0 1024 1024" version="1.1" xmlns="http://www.w3.org/2000/svg" p-id="18462" width="128" height="128" xmlns:xlink="http://www.w3.org/1999/xlink"><path d="M383.628 716.036l-1.788 0.112 124.5 85.624c13.268 9.128 31.332-0.372 31.332-16.48v-75.992a380.668 380.668 0 0 1-154.044 6.736zM537.672 314.388v-75.68c0-16.104-18.064-25.604-31.332-16.48L381.84 307.852l0.436 0.028a380.672 380.672 0 0 1 155.396 6.508z" fill="#EB6B69" p-id="18463"></path><path d="M757.532 458.992l-45.328-45.328c-147.968-147.968-387.868-147.968-535.836 0-54.224 54.22-54.224 142.132 0 196.356 147.968 147.968 387.868 147.968 535.836 0l44.828-44.828a20 20 0 0 1 28.284 0l102.984 102.984V356.512l-102.484 102.484a20 20 0 0 1-28.284-0.004z" fill="#EB6B69" p-id="18464"></path><path d="M444.288 732.812c-100.1 0-200.2-38.1-276.404-114.304-28.492-28.488-44.18-66.372-44.184-106.664 0-40.292 15.692-78.172 44.18-106.66 152.408-152.416 400.4-152.412 552.804-0.004l45.328 45.328c3.024 3.024 8.288 3.024 11.312 0l102.484-102.48a12 12 0 0 1 20.484 8.484v311.664a11.992 11.992 0 0 1-20.484 8.484l-102.984-102.98a7.948 7.948 0 0 0-5.66-2.344c-2.136 0-4.144 0.832-5.656 2.344l-44.832 44.828c-76.192 76.204-176.292 114.304-276.388 114.304z m0-417.948c-93.952 0-187.908 35.76-259.432 107.284-49.456 49.456-49.456 129.932 0 179.392 143.048 143.048 375.812 143.048 518.864 0l44.828-44.828c6.044-6.048 14.08-9.376 22.628-9.376s16.584 3.328 22.628 9.376l82.496 82.496V385.48l-82 81.996a31.776 31.776 0 0 1-22.628 9.376 31.776 31.776 0 0 1-22.628-9.376l-45.328-45.328c-71.524-71.524-165.476-107.284-259.428-107.284z" fill="#44294F" p-id="18465"></path><path d="M715.104 501.42l-45.328-45.328 16.968-16.968 45.328 45.328-16.968 16.968z m-88.616-81.66c-53.404-37.336-116.408-57.072-182.2-57.072v-24c70.74 0 138.5 21.232 195.952 61.4l-13.752 19.672z" fill="#44294F" p-id="18466"></path><path d="M176.368 413.668c-54.224 54.224-54.224 142.132 0 196.356a377.16 377.16 0 0 0 147.956 91.468c58.444-42.492 96.476-111.36 96.476-189.148 0-78.212-38.452-147.404-97.444-189.836a377.18 377.18 0 0 0-146.988 91.16z" fill="#FCC800" p-id="18467"></path><path d="M215.328 610.02c-54.224-54.224-54.224-142.132 0-196.356a377.268 377.268 0 0 1 120.784-81.228 235.584 235.584 0 0 0-12.752-9.932c-53.712 18.044-104.204 48.372-146.988 91.156-54.224 54.224-54.224 142.132 0 196.356a377.16 377.16 0 0 0 147.956 91.468 235.836 235.836 0 0 0 12.604-9.912 376.904 376.904 0 0 1-121.604-81.552z" fill="#E8E6F4" p-id="18468"></path><path d="M324.324 713.492c-1.272 0-2.552-0.204-3.792-0.612-57.968-19.3-109.328-51.052-152.648-94.372-28.492-28.488-44.18-66.372-44.184-106.664 0-40.292 15.692-78.172 44.18-106.66 43.072-43.076 94.092-74.716 151.652-94.052a12.028 12.028 0 0 1 10.832 1.632c64.144 46.14 102.436 120.752 102.436 199.58 0 78.348-37.916 152.684-101.42 198.856a12.016 12.016 0 0 1-7.056 2.292z m-147.956-299.828l8.484 8.488c-23.956 23.956-37.152 55.808-37.152 89.692s13.192 65.74 37.152 89.696c39.184 39.184 85.368 68.276 137.352 86.548 54.332-41.876 86.592-107.108 86.592-175.744 0-69.08-32.596-134.572-87.504-176.428-51.612 18.292-97.488 47.28-136.44 86.236l-8.484-8.488z" fill="#44294F" p-id="18469"></path><path d="M264.964 473.384m-38.96 0a38.96 38.96 0 1 0 77.92 0 38.96 38.96 0 1 0-77.92 0Z" fill="#8D386D" p-id="18470"></path><path d="M264.964 524.344c-28.1 0-50.96-22.86-50.96-50.956 0-28.1 22.86-50.96 50.96-50.96s50.96 22.86 50.96 50.96c0 28.096-22.86 50.956-50.96 50.956z m0-77.92a26.992 26.992 0 0 0-26.96 26.96c0 14.864 12.092 26.956 26.96 26.956s26.96-12.092 26.96-26.956a26.992 26.992 0 0 0-26.96-26.96zM141.4 539.3h123.564v24H141.4zM564.628 592.132a23.976 23.976 0 0 1-13.416-4.108L492 548.064l13.424-19.892 59.204 39.956v-112.572l-59.956 34.304-11.916-20.828 59.956-34.304a23.74 23.74 0 0 1 23.956 0.068 23.756 23.756 0 0 1 11.96 20.76v112.568a23.956 23.956 0 0 1-12.732 21.192 23.968 23.968 0 0 1-11.268 2.816zM807.4 480.792l73.252-19 6.028 23.232-73.256 19zM807.404 554.416l6.028-23.24 73.256 19.004-6.028 23.24zM388.64 317.74l-13.6-19.772 124.5-85.624a31.888 31.888 0 0 1 33.028-1.952 31.912 31.912 0 0 1 17.104 28.32v78.844h-24V238.708c0-4.36-2.992-6.408-4.276-7.084-1.284-0.676-4.664-1.98-8.256 0.488L388.64 317.74zM517.664 817.308a31.952 31.952 0 0 1-18.124-5.648L375.04 726.036l13.6-19.772 124.5 85.624c3.592 2.468 6.972 1.164 8.256 0.488 1.288-0.676 4.276-2.724 4.276-7.084v-78.844h24v78.844a31.92 31.92 0 0 1-17.104 28.32 31.972 31.972 0 0 1-14.904 3.696z" fill="#44294F" p-id="18471"></path></svg>