<svg width="16" height="16" viewBox="0 0 16 16" fill="none" xmlns="http://www.w3.org/2000/svg">
<g id="&#231;&#164;&#188;&#231;&#137;&#169; (1) 1" clip-path="url(#clip0_29222_2022)">
<path id="Vector" d="M15.016 7.83996H0.984C0.44 7.83996 0 7.39996 0 6.85596V4.94396C0 4.39996 0.44 3.95996 0.984 3.95996H15.016C15.56 3.95996 16 4.39996 16 4.94396V6.85596C16 7.39996 15.56 7.83996 15.016 7.83996ZM0.984 4.80796C0.904 4.80796 0.84 4.87196 0.84 4.95196V6.86396C0.84 6.94396 0.904 7.00796 0.984 7.00796H15.016C15.096 7.00796 15.16 6.94396 15.16 6.86396V4.94396C15.16 4.86396 15.096 4.79996 15.016 4.79996H0.984V4.80796Z" fill="currentColor"/>
<path id="Vector_2" d="M12.577 15.3115H3.425C2.377 15.3115 1.521 14.4555 1.521 13.4075V7.41553C1.521 7.18353 1.713 6.99153 1.945 6.99153C2.177 6.99153 2.369 7.18353 2.369 7.41553V13.4075C2.369 13.9915 2.849 14.4715 3.433 14.4715H12.593C13.177 14.4715 13.657 13.9915 13.657 13.4075V7.41553C13.657 7.18353 13.849 6.99153 14.081 6.99153C14.313 6.99153 14.505 7.18353 14.505 7.41553V13.4075C14.481 14.4555 13.633 15.3115 12.577 15.3115ZM4.449 4.63953C4.321 4.63953 4.193 4.58353 4.113 4.47153L3.649 3.83953C3.337 3.41553 3.201 2.89553 3.281 2.37553C3.361 1.85553 3.633 1.39153 4.057 1.07953C4.937 0.431531 6.177 0.615531 6.825 1.49553L8.001 3.07153L9.177 1.48753C9.825 0.607531 11.065 0.423531 11.945 1.07153C12.825 1.71953 13.009 2.95953 12.361 3.83953L12.009 4.31953C11.873 4.50353 11.609 4.54353 11.417 4.40753C11.233 4.27153 11.193 4.00753 11.329 3.81553L11.681 3.33553C12.057 2.83153 11.945 2.11953 11.441 1.74353C10.937 1.36753 10.225 1.47953 9.849 1.98353L8.337 4.02353C8.257 4.12753 8.129 4.19153 8.001 4.19153C7.865 4.19153 7.745 4.12753 7.665 4.02353L6.153 1.99153C5.977 1.75153 5.705 1.59153 5.409 1.54353C5.105 1.49553 4.809 1.57553 4.569 1.75153C4.329 1.92753 4.169 2.19953 4.121 2.49553C4.073 2.79953 4.153 3.09553 4.329 3.33553L4.793 3.95953C4.929 4.14353 4.889 4.40753 4.705 4.55153C4.625 4.60753 4.537 4.63953 4.449 4.63953Z" fill="currentColor"/>
<path id="Vector_3" d="M8.00017 15.311C7.76817 15.311 7.57617 15.119 7.57617 14.887V4.21502C7.57617 3.98302 7.76817 3.79102 8.00017 3.79102C8.23217 3.79102 8.42417 3.98302 8.42417 4.21502V14.887C8.42417 15.127 8.23217 15.311 8.00017 15.311Z" fill="currentColor"/>
</g>
<defs>
<clipPath id="clip0_29222_2022">
<rect width="16" height="16" fill="currentColor"/>
</clipPath>
</defs>
</svg>
