<svg width="18" height="18" viewBox="0 0 18 18" fill="none" xmlns="http://www.w3.org/2000/svg">
<g id="&#229;&#174;&#162;&#230;&#156;&#141; (3) 1" clip-path="url(#clip0_29222_2323)">
<path id="Vector" d="M16.8209 7.72829C16.7685 3.45168 13.2894 0 8.99991 0C4.71043 0 1.23137 3.45168 1.17886 7.72829C0.460922 8.30229 0 9.18358 0 10.1738C0 11.9024 1.40164 13.3044 3.13039 13.3044C3.88481 13.3044 4.5766 13.0369 5.11703 12.5929L3.64219 7.08858C3.47515 7.06139 3.30501 7.04329 3.13042 7.04329C3.01538 7.04329 2.9023 7.05042 2.79033 7.06275C3.16763 3.96621 5.80111 1.56523 9.00001 1.56523C12.1985 1.56523 14.8323 3.96618 15.2095 7.06275C15.098 7.0505 14.9846 7.04329 14.8695 7.04329C14.695 7.04329 14.5244 7.06143 14.3573 7.08858L12.8829 12.5903C13.3 12.9327 13.8071 13.1694 14.3636 13.26C13.6252 14.0533 12.6861 14.6577 11.6237 14.9847L11.4942 15.114C11.1627 14.5048 10.5249 14.0866 9.78265 14.0866C8.70191 14.0866 7.82611 14.9623 7.82611 16.0434C7.82611 17.1242 8.70187 18 9.78265 18C10.6697 18 11.4096 17.4059 11.6499 16.5971C13.8092 16.0677 15.6181 14.6463 16.6572 12.7412C17.4682 12.1756 18 11.2374 18 10.1737C18 9.18376 17.5385 8.30227 16.8209 7.72829Z" fill="currentColor"/>
</g>
<defs>
<clipPath id="clip0_29222_2323">
<rect width="18" height="18" fill="white"/>
</clipPath>
</defs>
</svg>
