<svg width="26" height="26" viewBox="0 0 26 26" fill="none" xmlns="http://www.w3.org/2000/svg">
<g id="&#230;&#149;&#176;&#230;&#141;&#174;&#229;&#188;&#128;&#229;&#143;&#145;&#239;&#188;&#136;&#229;&#183;&#165;&#228;&#189;&#156;&#230;&#181;&#129;&#227;&#128;&#129;&#230;&#149;&#176;&#230;&#141;&#174;&#230;&#142;&#162;&#231;&#180;&#162;&#239;&#188;&#137;&#226;&#128;&#148;&#230;&#156;&#128;&#232;&#191;&#145;&#230;&#137;&#147;&#229;&#188;&#128;">
<g id="Vector">
<path d="M22 12.15C22 16.8444 18.1944 20.65 13.5 20.65C8.80558 20.65 5 16.8444 5 12.15C5 7.45558 8.80558 3.65 13.5 3.65C18.1944 3.65 22 7.45558 22 12.15Z" fill="currentColor"/>
<path d="M6.0264 3.13858L5.84626 3.36701C5.92426 3.08844 5.98183 2.8693 6.02083 2.70401L6.1954 1.96115C6.37368 1.42258 6.25854 1.1013 5.72183 0.921154C5.31697 0.852439 4.9604 0.911868 4.78211 1.2703L3.92411 4.88801C3.80526 5.31515 3.7644 5.63458 4.30111 5.81472L7.6644 6.66901C8.20297 6.8473 8.5874 6.62072 8.74154 6.17501C8.89197 5.72744 8.56326 5.2873 8.16211 5.20558L6.73768 4.83787C6.86954 4.74315 6.86026 4.68558 7.04783 4.53701C9.17983 2.86558 11.0258 1.9593 13.3528 1.9593C18.72 1.9593 23.4278 6.79158 23.4278 12.1587C23.4278 17.5277 18.72 22.2672 13.3528 22.2672C7.98568 22.2672 3.27783 17.5277 3.27783 12.1587C3.27783 11.622 2.92497 11.193 2.3864 11.193C1.84968 11.193 1.52283 11.622 1.52283 12.1587C1.52283 18.603 6.9104 24.037 13.3528 24.037C19.7934 24.037 25.2274 18.5863 25.2274 12.1439C25.2274 5.70144 20.0831 0.286011 13.3751 0.286011C10.6594 0.306098 8.0452 1.32022 6.0264 3.13672V3.13858ZM11.9414 8.35901V14.0066C11.9414 14.5452 12.2998 14.9017 12.8365 14.9017H16.9C17.4385 14.9017 17.7728 14.5433 17.7728 14.0066C17.7728 13.4699 17.4385 13.2192 16.9 13.2192H13.6871V8.36087C13.6871 7.82415 13.3825 7.45644 12.844 7.45644C12.3073 7.45644 11.9433 7.82415 11.9433 8.36087L11.9414 8.35901Z" fill="currentColor"/>
</g>
<path id="Vector_2" d="M12 14.0501V8.40257L12.0019 8.40443C12.0019 7.86771 12.3659 7.5 12.9026 7.5C13.4411 7.5 13.7457 7.86771 13.7457 8.40443V13.2627H16.9586C17.4971 13.2627 17.8314 13.5134 17.8314 14.0501C17.8314 14.5869 17.4971 14.9453 16.9586 14.9453H12.8951C12.3584 14.9453 12 14.5887 12 14.0501Z" fill="currentColor"/>
</g>
</svg>
