<svg width="23" height="23" viewBox="0 0 23 23" fill="none" xmlns="http://www.w3.org/2000/svg">
<g id="Frame 275">
<path id="Vector 24" d="M11.2867 1.32748L1.41591 10.6362C1.08667 10.9467 1.30641 11.5 1.75896 11.5H3C3.27614 11.5 3.5 11.7239 3.5 12V21C3.5 21.2761 3.72386 21.5 4 21.5H18.5C18.7761 21.5 19 21.2761 19 21V12C19 11.7239 19.2239 11.5 19.5 11.5H21.263C21.7126 11.5 21.9338 10.9529 21.6105 10.6404L11.9772 1.33168C11.7851 1.14606 11.4811 1.14421 11.2867 1.32748Z" stroke="#9069E6" stroke-width="1.2" stroke-linecap="round"/>
<path id="Vector 25" d="M14.5 15V21C14.5 21.2761 14.2761 21.5 14 21.5H9.5C9.22386 21.5 9 21.2761 9 21V15C9 14.2 9.66667 14 10 14H13.5C14.3 14 14.5 14.6667 14.5 15Z" stroke="#D560FF" stroke-width="1.2" stroke-linecap="round"/>
</g>
</svg>
