<svg id="LEI" xmlns="http://www.w3.org/2000/svg" width="40" height="40" viewBox="0 0 40 40">
  <defs>
    <style>
    </style>
  </defs>
<g id="Group 286">
<path id="Vector" d="M31.0658 8.58607C30.8017 8.59496 30.5429 8.59827 30.2903 8.59827C23.6274 8.59827 20.6918 5.71337 20.6665 5.68694L20.0019 5L19.3346 5.68694C19.3073 5.71668 16.4305 8.59827 9.71162 8.59827C9.45825 8.59827 9.20112 8.59496 8.9344 8.58607L8 8.55595V21.6364C8 25.0614 9.20994 30.0585 19.6734 33.8799L20 34L20.3264 33.8799C30.7898 30.0583 32 25.0614 32 21.6364V8.55595L31.0658 8.58607ZM18.972 25.0208L12.943 19.6524L14.5437 18.3496L17.7497 20.725C17.7497 20.725 22.1754 16.1227 26.4502 13.9722L27.0598 14.6643C27.0598 14.6643 21.7182 19.1141 18.972 25.0208Z" />
</g>

</svg>
