<svg width="50" height="50" viewBox="0 0 50 50" fill="none" xmlns="http://www.w3.org/2000/svg">
<g id="Group 22808">
<g id="icon-skrgzqt 1">
<path id="Vector" d="M32.3828 21.8361C36.4844 22.3439 39.8828 18.8673 39.3359 14.8048C38.9844 11.9923 36.7578 9.76575 33.9844 9.41419C29.8828 8.90638 26.4453 12.3439 26.9922 16.4454C27.3437 19.2579 29.6094 21.4845 32.3828 21.8361ZM16.4453 21.8361C20.5469 22.3439 23.9453 18.8673 23.3984 14.8048C23.0469 11.9923 20.7812 9.76575 18.0078 9.41419C13.9062 8.90638 10.4688 12.3439 11.0156 16.4454C11.4063 19.2579 13.6328 21.4845 16.4453 21.8361ZM16.9922 25.0001C12.3828 25.0001 3.125 27.3829 3.125 32.1095V39.8439C3.125 40.2736 3.47656 40.6251 3.90625 40.6251H30.0781C30.5078 40.6251 30.8594 40.2736 30.8594 39.8439V32.1095C30.8594 27.3829 21.6016 25.0001 16.9922 25.0001ZM32.7344 25.0001C32.1484 25.0001 31.4844 25.0392 30.7813 25.1173C33.125 26.797 34.7656 29.1017 34.7656 32.1095V39.8439C34.7656 40.2736 35.1172 40.6251 35.5469 40.6251H46.0938C46.5234 40.6251 46.875 40.2736 46.875 39.8439V32.1095C46.875 27.3829 37.4609 25.0001 32.7344 25.0001Z" fill="white"/>
</g>
</g>
</svg>
