
<svg id="LEI" xmlns="http://www.w3.org/2000/svg" width="40" height="40" viewBox="0 0 40 40">
  <defs>
    <style>
    </style>
  </defs>
<g id="Group 298">
<g id="Group 383">
<path id="Vector" d="M33.1602 25.2716V14.4727L27.5259 20.1086L33.1602 25.27M23.6507 23.9821C23.1959 24.4396 22.6548 24.8023 22.0589 25.0492C21.4629 25.2962 20.8239 25.4226 20.1788 25.421C18.8678 25.421 17.633 24.9098 16.7053 23.9821L13.6832 20.9583L7.19751 26.903V27.8988C7.19751 29.2015 8.25633 30.2604 9.55745 30.2604H30.8002C32.1013 30.2604 33.1602 29.2015 33.1602 27.9004V26.8715L26.6894 20.9434L23.6524 23.9805"/>
<path id="Vector_2" d="M30.8484 10H9.60558C8.30612 10 7.24896 11.0588 7.24896 12.3599V12.8528L17.5899 23.1971C18.2952 23.9007 19.2329 24.2891 20.2286 24.2891C21.226 24.2891 22.1637 23.9007 22.8674 23.1971L33.21 12.8528V12.3599C33.21 11.0588 32.1478 10 30.8484 10ZM7.19751 14.4726V25.3014L12.8468 20.1235L7.19751 14.4726Z"/>
</g>
</g>
</svg>
