<svg id="LEI" xmlns="http://www.w3.org/2000/svg" width="40" height="40" viewBox="0 0 40 40">
  <defs>
    <style>
    </style>
  </defs>
  <path id="CPF" d="M34 14.0769H6V10.6923C6 10.2435 6.18437 9.81303 6.51256 9.49566C6.84075 9.1783 7.28587 9 7.75 9H32.25C32.7141 9 33.1592 9.1783 33.4874 9.49566C33.8156 9.81303 34 10.2435 34 10.6923V14.0769ZM34 15.7692V29.3077C34 29.7565 33.8156 30.187 33.4874 30.5043C33.1592 30.8217 32.7141 31 32.25 31H7.75C7.28587 31 6.84075 30.8217 6.51256 30.5043C6.18437 30.187 6 29.7565 6 29.3077V15.7692H34ZM10.375 21.6923C10.1429 21.6923 9.92038 21.7815 9.75628 21.9401C9.59219 22.0988 9.5 22.314 9.5 22.5385C9.5 22.7629 9.59219 22.9781 9.75628 23.1368C9.92038 23.2955 10.1429 23.3846 10.375 23.3846H17.375C17.6071 23.3846 17.8296 23.2955 17.9937 23.1368C18.1578 22.9781 18.25 22.7629 18.25 22.5385C18.25 22.314 18.1578 22.0988 17.9937 21.9401C17.8296 21.7815 17.6071 21.6923 17.375 21.6923H10.375Z"/>
</svg>
