
<svg id="LEI" xmlns="http://www.w3.org/2000/svg" width="40" height="40" viewBox="0 0 40 40">
  <defs>
    <style>
    </style>
  </defs>
<g id="Group 284">
<g id="Group 296">
<path id="Vector" d="M28.5254 15.3518H11.6135C10.6564 15.3559 9.73964 15.7379 9.06287 16.4147C8.38609 17.0914 8.00408 18.0082 8 18.9653V30.3795C8.00409 31.3358 8.38636 32.2518 9.06335 32.9273C9.74034 33.6028 10.6571 33.9831 11.6135 33.9852H28.5254C29.4818 33.9831 30.3985 33.6028 31.0755 32.9273C31.7525 32.2518 32.1347 31.3358 32.1388 30.3795V18.9653C32.1348 18.0082 31.7527 17.0914 31.076 16.4147C30.3992 15.7379 29.4825 15.3559 28.5254 15.3518ZM21.5466 25.2772V29.0225H18.569V25.2694C17.9923 24.9388 17.541 24.4268 17.2852 23.8132C17.0295 23.1996 16.9836 22.5187 17.1547 21.8763C17.3258 21.234 17.7043 20.6661 18.2314 20.261C18.7585 19.8559 19.4046 19.6363 20.0694 19.6363C20.7342 19.6363 21.3804 19.8559 21.9075 20.261C22.4346 20.6661 22.8131 21.234 22.9842 21.8763C23.1553 22.5187 23.1094 23.1996 22.8536 23.8132C22.5979 24.4268 22.1466 24.9388 21.5699 25.2694L21.5466 25.2772Z"/>
<path id="Vector_2" d="M28.0211 15.4526H25.6949V12.7386C25.6949 11.2476 25.1026 9.81767 24.0483 8.76338C22.994 7.70908 21.5641 7.11679 20.0731 7.11679C18.5821 7.11679 17.1521 7.70908 16.0978 8.76338C15.0436 9.81767 14.4513 11.2476 14.4513 12.7386V15.4526H12.125V12.7386C12.125 10.6306 12.9624 8.60901 14.4529 7.11846C15.9435 5.62791 17.9651 4.79053 20.0731 4.79053C22.181 4.79053 24.2026 5.62791 25.6932 7.11846C27.1837 8.60901 28.0211 10.6306 28.0211 12.7386V15.4526Z"/>
</g>
</g>

</svg>