<svg width="30" height="30" viewBox="0 0 30 30" fill="none" xmlns="http://www.w3.org/2000/svg">
<g id="&#230;&#143;&#144;&#231;&#164;&#186; 1" clip-path="url(#clip0_557_65)">
<circle id="Ellipse 8" cx="16.5" cy="15.5" r="9.5" fill="white"/>
<path id="Vector" d="M14.9836 0.672363C7.06177 0.672363 0.639893 7.08486 0.639893 14.9953C0.639893 20.1123 3.37388 24.8405 7.81177 27.3993C12.25 29.9578 17.7176 29.9578 22.1555 27.3993C26.5937 24.8408 29.3274 20.1126 29.3274 14.9953C29.3277 7.08516 22.9055 0.672363 14.9836 0.672363ZM14.9836 22.9526C14.1036 22.9526 13.3899 22.2401 13.3899 21.3612C13.3899 20.7929 13.6937 20.2673 14.1868 19.9831C14.6798 19.6989 15.2875 19.6989 15.7805 19.9831C16.2736 20.2673 16.5774 20.7929 16.5774 21.3612C16.5774 22.2398 15.864 22.9526 14.9836 22.9526ZM16.5774 16.5867C16.5774 17.5415 15.9399 18.1781 14.9836 18.1781C14.0274 18.1781 13.3899 17.5415 13.3899 16.5867V8.62969C13.3899 7.6749 14.0274 7.03828 14.9836 7.03828C15.9399 7.03828 16.5774 7.6749 16.5774 8.62969V16.5867Z" fill="#F92929"/>
</g>
<defs>
<clipPath id="clip0_557_65">
<rect width="30" height="30" fill="white"/>
</clipPath>
</defs>
</svg>
