<svg width="40" height="40" viewBox="0 0 40 40" fill="none" xmlns="http://www.w3.org/2000/svg">
<g id="Group 517">
<g id="Group 516">
<path id="Vector" d="M18.0734 9.3588C19.2155 9.35357 20.3471 9.57631 21.4019 10.014C22.4568 10.4516 23.4137 11.0954 24.2166 11.9076C25.8462 13.5411 26.7613 15.7542 26.7613 18.0616C26.7613 20.369 25.8462 22.5821 24.2166 24.2156C22.5831 25.8452 20.3699 26.7604 18.0625 26.7604C15.7552 26.7604 13.542 25.8452 11.9085 24.2156C10.2789 22.5821 9.36378 20.369 9.36378 18.0616C9.36378 15.7542 10.2789 13.5411 11.9085 11.9076C12.7183 11.0986 13.6796 10.4572 14.7374 10.0199C15.7952 9.58253 16.9288 9.3579 18.0734 9.3588ZM18.0734 5.00196C15.049 5.00434 12.1189 6.05553 9.78272 7.97635C7.44652 9.89717 5.84875 12.5687 5.26174 15.5357C4.67474 18.5027 5.13484 21.5814 6.56361 24.2471C7.99238 26.9128 10.3014 29.0005 13.0971 30.1544C15.8928 31.3083 19.0022 31.4569 21.8952 30.575C24.7882 29.693 27.2858 27.8351 28.9624 25.3178C30.6389 22.8005 31.3906 19.7797 31.0892 16.7703C30.7879 13.7609 29.4523 10.9491 27.3099 8.8142C24.8575 6.37028 21.5357 4.99923 18.0734 5.00196Z" fill="#B78948"/>
<path id="Vector_2" d="M25.7635 22.6899L22.6919 25.7615L31.9284 34.998L35 31.9265L25.7635 22.6899Z" fill="#B78948"/>
</g>
</g>
</svg>
