<svg width="40" height="40" viewBox="0 0 40 40" fill="none" xmlns="http://www.w3.org/2000/svg">
<g id="&#233;&#128;&#137;&#230;&#139;&#169; 1" clip-path="url(#clip0_557_299)">
<g id="Group 22831">
<circle id="Ellipse 50" cx="20.5" cy="19.5" r="13.5" fill="white"/>
<path id="Vector" d="M19.9508 2.46484C10.2819 2.46484 2.44357 10.303 2.44357 19.9721C2.44357 29.6411 10.2817 37.4793 19.9508 37.4793C29.6199 37.4793 37.4581 29.6411 37.4581 19.9721C37.4581 10.303 29.6199 2.46484 19.9508 2.46484ZM29.3945 15.4958L17.5528 27.3375C17.3191 27.571 16.9138 27.5444 16.6475 27.2781L15.8538 26.4844C15.8536 26.4842 15.8534 26.4842 15.8534 26.484L10.548 21.1786C10.2816 20.9122 10.2816 20.4804 10.548 20.214L11.9949 18.7671C12.2613 18.5005 12.6931 18.5005 12.9595 18.7671L17.1297 22.9374L26.9828 13.0844C27.2165 12.8507 27.6217 12.8773 27.8881 13.1436L29.335 14.5905C29.6014 14.8571 29.6279 15.2623 29.3945 15.4958Z" fill="currentColor"/>
</g>
</g>
<defs>
<clipPath id="clip0_557_299">
<rect width="40" height="40" fill="white"/>
</clipPath>
</defs>
</svg>
