<svg id="LEI" xmlns="http://www.w3.org/2000/svg" width="40" height="40" viewBox="0 0 40 40">
  <defs>
    <style>
    </style>
  </defs>
<g id="Group 284">
<path id="Vector" d="M28.8421 5H11.1579C9.41396 5 8 6.39926 8 8.12501V31.875C8 33.601 9.41399 35 11.1579 35H28.8421C30.5857 35 32 33.601 32 31.875V8.12501C32 6.39926 30.5857 5 28.8421 5ZM18.1053 6.87502H21.8947C22.2435 6.87502 22.5263 7.15486 22.5263 7.50001C22.5263 7.84516 22.2435 8.12501 21.8947 8.12501H18.1053C17.7564 8.12501 17.4737 7.84516 17.4737 7.50001C17.4737 7.15486 17.7564 6.87502 18.1053 6.87502ZM20 33.125C18.9536 33.125 18.1053 32.2854 18.1053 31.25C18.1053 30.2145 18.9536 29.3749 20 29.3749C21.0467 29.3749 21.8947 30.2145 21.8947 31.25C21.8947 32.2854 21.0467 33.125 20 33.125ZM28.2105 26.875H11.7895V10H28.2105V26.875Z"/>
</g>

</svg>
