<svg width="50" height="50" viewBox="0 0 50 50" fill="none" xmlns="http://www.w3.org/2000/svg">
<g id="Group 22809">
<g id="&#233;&#162;&#132;&#228;&#188;&#176;&#230;&#148;&#182;&#229;&#133;&#165; 1" clip-path="url(#clip0_562_540)">
<path id="Vector" d="M38.4001 10.7998C38.8728 10.7998 39.3409 10.8929 39.7777 11.0738C40.2145 11.2548 40.6113 11.5199 40.9456 11.8542C41.2799 12.1885 41.5451 12.5854 41.726 13.0221C41.9069 13.4589 42.0001 13.927 42.0001 14.3998V23.3998H26.7C25.5066 23.3998 24.362 23.8739 23.5181 24.7178C22.6742 25.5617 22.2 26.7063 22.2 27.8998C22.2 29.0933 22.6742 30.2379 23.5181 31.0818C24.362 31.9257 25.5066 32.3998 26.7 32.3998H42.0001V39.5998C42.0001 40.5546 41.6208 41.4703 40.9456 42.1454C40.2705 42.8205 39.3548 43.1998 38.4001 43.1998H11.4C10.4453 43.1998 9.5296 42.8205 8.85446 42.1454C8.17933 41.4703 7.80005 40.5546 7.80005 39.5998V14.3998C7.80005 13.445 8.17933 12.5294 8.85446 11.8542C9.5296 11.1791 10.4453 10.7998 11.4 10.7998H38.4001ZM26.7 25.1998C27.4161 25.1998 28.1029 25.4843 28.6092 25.9906C29.1156 26.497 29.4 27.1837 29.4 27.8998C29.4 28.6159 29.1156 29.3026 28.6092 29.809C28.1029 30.3153 27.4161 30.5998 26.7 30.5998C25.984 30.5998 25.2972 30.3153 24.7909 29.809C24.2845 29.3026 24.0001 28.6159 24.0001 27.8998C24.0001 27.1837 24.2845 26.497 24.7909 25.9906C25.2972 25.4843 25.984 25.1998 26.7 25.1998Z" fill="white"/>
</g>
</g>
<defs>
<clipPath id="clip0_562_540">
<rect width="36" height="36" fill="white" transform="translate(6 9)"/>
</clipPath>
</defs>
</svg>
