<svg id="LEI" xmlns="http://www.w3.org/2000/svg" width="40" height="40" viewBox="0 0 40 40">
  <defs>
    <style>
    </style>
  </defs>
<g id="Group 286">
<path id="Vector" d="M25.6073 4.39286C23.5095 2.29523 20.8367 0.86677 17.9271 0.288116C15.0174 -0.290539 12.0015 0.00660069 9.26068 1.14196C6.51987 2.27732 4.17728 4.19991 2.52913 6.66661C0.880978 9.13332 0.00128174 12.0334 0.00128174 15C0.00128174 17.9667 0.880978 20.8667 2.52913 23.3334C4.17728 25.8001 6.51987 27.7227 9.26068 28.8581C12.0015 29.9934 15.0174 30.2906 17.9271 29.7119C20.8367 29.1332 23.5095 27.7048 25.6073 25.6071C27.0004 24.2143 28.1054 22.5606 28.8593 20.7406C29.6132 18.9206 30.0013 16.97 30.0013 15C30.0013 13.0301 29.6132 11.0794 28.8593 9.2594C28.1054 7.43942 27.0004 5.78576 25.6073 4.39286ZM20.1538 18.6375C20.2244 18.7077 20.2804 18.7912 20.3187 18.8831C20.3569 18.9751 20.3766 19.0736 20.3766 19.1732C20.3766 19.2728 20.3569 19.3714 20.3187 19.4633C20.2804 19.5553 20.2244 19.6387 20.1538 19.7089L19.6984 20.1643C19.6282 20.2349 19.5447 20.291 19.4528 20.3292C19.3609 20.3674 19.2623 20.3871 19.1627 20.3871C19.0631 20.3871 18.9645 20.3674 18.8726 20.3292C18.7807 20.291 18.6972 20.2349 18.627 20.1643L15.0002 16.5161L11.3627 20.1536C11.2925 20.2242 11.209 20.2802 11.1171 20.3185C11.0252 20.3567 10.9266 20.3764 10.827 20.3764C10.7274 20.3764 10.6288 20.3567 10.5369 20.3185C10.4449 20.2802 10.3615 20.2242 10.2913 20.1536L9.83591 19.6982C9.76529 19.628 9.70925 19.5446 9.671 19.4526C9.63276 19.3607 9.61307 19.2621 9.61307 19.1625C9.61307 19.0629 9.63276 18.9643 9.671 18.8724C9.70925 18.7805 9.76529 18.697 9.83591 18.6268L13.4841 15L9.84663 11.3625C9.77601 11.2923 9.71996 11.2088 9.68172 11.1169C9.64348 11.025 9.62379 10.9264 9.62379 10.8268C9.62379 10.7272 9.64348 10.6286 9.68172 10.5367C9.71996 10.4447 9.77601 10.3613 9.84663 10.2911L10.302 9.83572C10.3722 9.7651 10.4557 9.70906 10.5476 9.67081C10.6395 9.63257 10.7381 9.61288 10.8377 9.61288C10.9373 9.61288 11.0359 9.63257 11.1278 9.67081C11.2197 9.70906 11.3032 9.7651 11.3734 9.83572L15.0002 13.4839L18.6377 9.84644C18.7079 9.77581 18.7914 9.71977 18.8833 9.68153C18.9752 9.64328 19.0738 9.6236 19.1734 9.6236C19.273 9.6236 19.3716 9.64328 19.4635 9.68153C19.5555 9.71977 19.6389 9.77581 19.7091 9.84644L20.1645 10.3018C20.2351 10.372 20.2911 10.4555 20.3294 10.5474C20.3676 10.6393 20.3873 10.7379 20.3873 10.8375C20.3873 10.9371 20.3676 11.0357 20.3294 11.1276C20.2911 11.2196 20.2351 11.303 20.1645 11.3732L16.5163 15L20.1538 18.6375Z"/>
</g>

</svg>
