<svg width="20" height="20" viewBox="0 0 20 20" fill="none" xmlns="http://www.w3.org/2000/svg">
<g id="062_&#232;&#186;&#171;&#228;&#187;&#189;&#232;&#175;&#129; 1">
<path id="Vector" d="M4.4168 16.6428C3.02464 16.4077 1.91388 15.3564 1.60741 13.9836C1.04037 11.4429 1.04037 8.8091 1.60741 6.26834C1.91364 4.89552 3.02439 3.84421 4.4168 3.60918C8.23313 2.96491 12.1311 2.96491 15.9475 3.60918C17.3396 3.84421 18.4504 4.89552 18.7568 6.26834C19.3239 8.8091 19.3239 11.4429 18.7568 13.9836C18.4506 15.3564 17.3399 16.4077 15.9475 16.6428C12.1311 17.287 8.23313 17.287 4.4168 16.6428Z" fill="currentColor"/>
<path id="Vector_2" d="M3.18213 12.5971C3.18164 12.8153 3.26013 13.0261 3.40448 13.1821C3.91429 13.7341 5.19094 14.126 6.68151 14.126C8.15376 14.126 9.41703 13.7435 9.93948 13.2161C10.095 13.059 10.1816 12.8405 10.1821 12.6132V12.4934C10.0197 11.1656 8.51105 10.124 6.68027 10.126C4.84949 10.1282 3.34283 11.1733 3.18263 12.4541V12.5968L3.18213 12.5971Z" fill="white"/>
<path id="Vector_3" d="M5.18213 9.12598C5.18213 9.65641 5.34016 10.1651 5.62147 10.5402C5.90277 10.9153 6.2843 11.126 6.68213 11.126C7.07995 11.126 7.46148 10.9153 7.74279 10.5402C8.02409 10.1651 8.18213 9.65641 8.18213 9.12598C8.18213 8.59554 8.02409 8.08684 7.74279 7.71176C7.46148 7.33669 7.07995 7.12598 6.68213 7.12598C6.2843 7.12598 5.90277 7.33669 5.62147 7.71176C5.34016 8.08684 5.18213 8.59554 5.18213 9.12598Z" fill="white"/>
<path id="Vector_4" d="M14.6822 9.76053C13.7697 9.76053 12.857 9.74134 11.9509 9.70269C11.5078 9.68376 11.164 9.31566 11.1833 8.88052C11.2026 8.44538 11.5774 8.10831 12.0205 8.12672C13.7869 8.20191 15.5778 8.20191 17.3441 8.12672C17.787 8.10805 18.1621 8.44538 18.1814 8.88052C18.2006 9.31566 17.8568 9.68376 17.4137 9.70269C16.5077 9.74134 15.5949 9.76053 14.6825 9.76053H14.6822ZM13.6648 13.126C13.0851 13.126 12.5054 13.1063 11.9298 13.0671C11.4872 13.0368 11.1533 12.6601 11.1841 12.2255C11.2149 11.7908 11.5988 11.4632 12.0412 11.4932C13.1183 11.5668 14.2107 11.5668 15.2878 11.4932C15.7301 11.463 16.1141 11.7908 16.1449 12.2255C16.1757 12.6601 15.8418 13.0368 15.3992 13.0671C14.8236 13.1065 14.2439 13.126 13.6642 13.126H13.6648Z" fill="white"/>
</g>
</svg>
