<svg xmlns="http://www.w3.org/2000/svg" width="20" height="17.179" viewBox="0 0 20 17.179">
  <defs>
    <style>
      
    </style>
  </defs>
  <path id="路径_176" data-name="路径 176" class="cls-1" d="M88.718,136l1.549,1.549-15.624,15.63-1.549-1.55,2.047-2.049c-1.875-1.5-3.141-3.447-3.141-4.991,0-1.486,1.254-3.346,3.115-4.851A11.19,11.19,0,0,1,82,137.1a10.227,10.227,0,0,1,4.506,1.112Zm1.046,4.519A6.362,6.362,0,0,1,92,144.589c0,1.49-1.181,3.361-2.959,4.842A11.078,11.078,0,0,1,82,152.075a10.3,10.3,0,0,1-2.846-.4l-.1-.028,1.575-1.878a7.962,7.962,0,0,0,1.369.12,8.9,8.9,0,0,0,5.639-2.139c1.328-1.106,2.17-2.44,2.17-3.158a4.554,4.554,0,0,0-1.479-2.4l-.1-.1ZM82,139.292a9.043,9.043,0,0,0-5.506,2.148c-1.4,1.132-2.3,2.472-2.3,3.149,0,.809,1,2.281,2.51,3.428l2.162-2.162a3.425,3.425,0,0,1,4.449-4.449l1.534-1.534A7.724,7.724,0,0,0,82,139.292Z" transform="translate(-72 -136)"/>
</svg>
