<svg t="1763289334308" class="icon" viewBox="0 0 1105 1024" version="1.1" xmlns="http://www.w3.org/2000/svg" p-id="1539" width="200" height="200"><path d="M1005.833109 534.654672c-35.635401-32.071861-81.961423-53.453102-128.287444-67.707262-39.198941-10.69062-81.961423-28.508321-121.160364-67.707263-7.12708-7.12708-10.69062-14.25416-10.69062-24.94478 0-53.453102-10.69062-253.011348-192.431166-345.663391-10.69062-7.12708-21.381241-10.69062-35.635401-10.690621C428.539611-3.439885 214.727204-46.202367 68.622059 178.30066c0 10.69062-181.740546 228.066567 46.326022 559.475798 46.326021 53.453102 220.939487 274.392589 559.475797 285.083209 53.453102 0 327.84569 28.508321 409.807113-199.558246 10.69062-21.381241 57.016642-171.049925-78.397882-288.646749z m-277.956129-28.508321c10.69062-46.326021 53.453102-35.635401 117.596824-17.817701 64.143722 17.817701 64.143722 92.652043 53.453102 110.469744-46.326021 78.397882-124.723904 0-142.541605-21.381241-3.56354-3.56354-3.56354-7.12708-7.12708-7.12708-7.12708-7.12708-28.508321-28.508321-21.381241-64.143722zM278.870926 71.394457c49.889562-89.088503 242.320728-64.143722 263.701968 24.944781 10.69062 42.762481-24.944781 106.906203-64.143722 85.524963-53.453102-28.508321-110.469743-17.817701-181.740545-17.817701-53.453102 0-35.635401-60.580182-17.817701-92.652043z m473.950835 887.321488c-552.348717 64.143722-684.199702-463.260215-684.199702-463.260215 331.40923 730.525723 922.956889 302.90091 922.95689 302.90091-17.817701 67.707262-106.906203 142.541605-238.757188 160.359305z" fill="#FFB500" p-id="1540"></path></svg>