<svg width="19" height="18" viewBox="0 0 19 18" fill="none" xmlns="http://www.w3.org/2000/svg">
<g id="world">
<path id="Subtract" fill-rule="evenodd" clip-rule="evenodd" d="M8.18566 2.62474e-05C4.03921 0.373751 0.702054 3.55402 0.0883989 7.62665L1.20351 8.26386L5.52829 10.5704L4.53854 7.60118C4.46418 7.37809 4.48919 7.1338 4.60723 6.93041C4.72526 6.72702 4.92495 6.58411 5.15554 6.53799L6.92659 6.18378L8.28648 4.58963L8.18595 0.804871C8.18576 0.797616 8.18566 0.790358 8.18566 0.783101V2.62474e-05ZM0 9.46467C0.160518 12.5061 1.82793 15.148 4.26942 16.6577L5.14653 15.7806L6.78623 14.1409C6.93998 13.9871 7.14852 13.9007 7.36596 13.9007H10.6454C10.8628 13.9007 11.0713 13.9871 11.2251 14.1409L12.8648 15.7806C12.8862 15.802 12.9064 15.8245 12.9253 15.8481L13.6282 16.7268C14.3665 16.2852 15.0364 15.741 15.6182 15.114L14.9848 14.4805L11.7053 11.2011C11.4858 10.9815 11.4091 10.6567 11.5073 10.3621L12.3271 7.90251C12.3799 7.74431 12.4796 7.60595 12.613 7.50589L15.8924 5.04633L15.9078 5.03507L16.7816 4.41091C15.3445 1.97129 12.7921 0.267296 9.82537 0V0.772222L9.93396 4.86059C9.93934 5.06306 9.86958 5.26035 9.73814 5.41444L7.98969 7.46408C7.87026 7.60408 7.7072 7.69983 7.52674 7.73592L6.38779 7.96371L7.08385 10.0519C7.5524 11.4576 6.06405 12.7145 4.75666 12.0172L0.421324 9.70502C0.414285 9.70127 0.407302 9.69741 0.400376 9.69346L0 9.46467ZM17.4908 5.91938L16.8686 6.36382L13.8017 8.66399L13.2231 10.3999L16.1442 13.321L16.6275 13.8044C17.5119 12.4096 18.024 10.7554 18.024 8.98162C18.024 7.90657 17.8359 6.87545 17.4908 5.91938ZM9.00566 18C7.88549 18 6.81303 17.7958 5.82347 17.4225L6.30597 16.94L7.70555 15.5404H10.3058L11.6732 16.9079L12.1085 17.452C11.1411 17.8065 10.096 18 9.00566 18Z" fill="currentColor"/>
</g>
</svg>
