<?xml version="1.0" standalone="no"?><!DOCTYPE svg PUBLIC "-//W3C//DTD SVG 1.1//EN" "http://www.w3.org/Graphics/SVG/1.1/DTD/svg11.dtd"><svg t="1754138130352" class="icon" viewBox="0 0 1024 1024" version="1.1" xmlns="http://www.w3.org/2000/svg" p-id="5952" width="20" height="20" xmlns:xlink="http://www.w3.org/1999/xlink"><path d="M683.38 207.304h120.794a158.609 158.609 0 0 1 158.609 158.609v459.13a158.609 158.609 0 0 1-158.61 158.61H219.827a158.609 158.609 0 0 1-158.609-158.61v-459.13a158.609 158.609 0 0 1 158.61-158.609h116.368l-62.4-117.954a33.391 33.391 0 0 1 59.019-31.221l78.929 149.175h196.09L686.762 58.13a33.391 33.391 0 0 1 59.06 31.22l-62.441 117.955z m-463.554 66.783A91.826 91.826 0 0 0 128 365.913v459.13a91.826 91.826 0 0 0 91.826 91.827h584.348A91.826 91.826 0 0 0 896 825.043v-459.13a91.826 91.826 0 0 0-91.826-91.826H219.826z" fill="#F69C00" p-id="5953"></path><path d="M353.391 465.377v276.898a54.26 54.26 0 0 0 82.185 46.539L666.31 650.365a54.26 54.26 0 0 0 0-93.078L435.576 418.838a54.26 54.26 0 0 0-82.185 46.54z m260.661 138.45L420.174 720.152V487.499l193.878 116.327z" fill="#F69C00" p-id="5954"></path></svg>