<svg width="17" height="17" viewBox="0 0 17 17" fill="none" xmlns="http://www.w3.org/2000/svg">
<g id="Frame" clip-path="url(#clip0_14_2168)">
<path id="&#232;&#183;&#175;&#229;&#190;&#132; 15110" d="M10.0614 15.5528V1.446C10.0612 1.25084 10.1384 1.06357 10.2761 0.925265C10.4138 0.786965 10.6008 0.708928 10.7959 0.708272C10.8795 0.707644 10.9625 0.722039 11.041 0.750772L15.3973 2.28113C15.5412 2.33212 15.6658 2.42644 15.754 2.55112C15.8421 2.6758 15.8895 2.82472 15.8896 2.97742V14.0225C15.8894 14.175 15.842 14.3237 15.7539 14.4481C15.6657 14.5726 15.5411 14.6666 15.3973 14.7173L11.041 16.2491C10.9299 16.2887 10.8109 16.3009 10.6941 16.2847C10.5773 16.2685 10.4661 16.2243 10.3699 16.156C10.2738 16.0877 10.1956 15.9972 10.1418 15.8922C10.0881 15.7872 10.0605 15.6708 10.0614 15.5528ZM4.0264 15.1583C3.86374 15.158 3.70782 15.0932 3.59284 14.9782C3.47785 14.8631 3.41317 14.7072 3.41298 14.5445V10.139H4.63946V13.9286H8.29694C8.45967 13.9268 8.61681 13.9879 8.73559 14.0992C8.85436 14.2104 8.9256 14.3632 8.93444 14.5257C8.937 14.6077 8.92308 14.6894 8.89352 14.7659C8.86395 14.8425 8.81933 14.9123 8.7623 14.9713C8.70527 15.0302 8.63699 15.0772 8.5615 15.1093C8.48601 15.1414 8.40484 15.1581 8.3228 15.1583H4.0264ZM5.84859 9.93715V9.06271H1.67509C1.59282 9.06281 1.51138 9.04633 1.43563 9.01425C1.35987 8.98218 1.29136 8.93517 1.23417 8.87604C1.17698 8.8169 1.1323 8.74684 1.10278 8.67006C1.07327 8.59327 1.05953 8.51132 1.06238 8.4291C1.07123 8.26673 1.14252 8.11407 1.26133 8.00305C1.38015 7.89202 1.53728 7.83124 1.69988 7.8334H5.84717V6.9586C5.84712 6.8824 5.86829 6.80769 5.90829 6.74284C5.9483 6.67798 6.00556 6.62554 6.07368 6.59139C6.1418 6.55724 6.21808 6.54273 6.29399 6.54947C6.36989 6.55622 6.44241 6.58396 6.50344 6.62958L8.49351 8.11708C8.54474 8.15541 8.58633 8.20514 8.61498 8.26235C8.64363 8.31956 8.65855 8.38266 8.65855 8.44664C8.65855 8.51062 8.64363 8.57371 8.61498 8.63092C8.58633 8.68813 8.54474 8.73787 8.49351 8.77619L6.50344 10.2665C6.43331 10.3193 6.34792 10.3479 6.26013 10.348C6.15126 10.3481 6.0468 10.305 5.96965 10.2282C5.8925 10.1514 5.84896 10.0471 5.84859 9.93821V9.93715ZM3.41263 6.75673V2.35267C3.41254 2.18973 3.47713 2.03341 3.59221 1.91806C3.70729 1.80271 3.86346 1.73776 4.0264 1.73748H8.3228C8.40516 1.73757 8.48666 1.75424 8.56245 1.78649C8.63823 1.81874 8.70675 1.86591 8.76393 1.9252C8.8211 1.98449 8.86575 2.05468 8.89523 2.13158C8.92471 2.20849 8.9384 2.29054 8.93551 2.37285C8.9263 2.53497 8.85486 2.68728 8.73608 2.79801C8.61731 2.90873 8.46037 2.96932 8.29801 2.96715H4.63946V6.75673H3.41263Z" fill="currentColor"/>
</g>
<defs>
<clipPath id="clip0_14_2168">
<rect width="17" height="17" fill="white"/>
</clipPath>
</defs>
</svg>
