<?xml version="1.0" standalone="no"?><!DOCTYPE svg PUBLIC "-//W3C//DTD SVG 1.1//EN" "http://www.w3.org/Graphics/SVG/1.1/DTD/svg11.dtd"><svg t="1754547307815" class="icon" viewBox="0 0 1024 1024" version="1.1" xmlns="http://www.w3.org/2000/svg" p-id="16049" xmlns:xlink="http://www.w3.org/1999/xlink" width="48" height="48"><path d="M378.88 225.28c-126.293333-59.733333-279.04-8.533333-339.626667 119.466667S32.426667 622.933333 158.72 682.666667s279.04 8.533333 339.626667-119.466667c59.733333-123.733333 5.12-275.626667-119.466667-337.92z m127.146667 253.44c-63.146667-40.106667-90.453333-116.906667-65.706667-186.88 47.786667 49.493333 71.68 116.906667 65.706667 186.88zM288.426667 219.306667c-40.106667 63.146667-116.906667 90.453333-186.88 65.706666 51.2-47.786667 118.613333-71.68 186.88-65.706666zM29.013333 436.053333C92.16 476.16 119.466667 552.96 94.72 622.933333c-48.64-50.346667-71.68-119.466667-65.706667-186.88zM130.56 392.533333c35.84-75.946667 128.853333-107.52 204.8-71.68s107.52 128.853333 71.68 204.8c-36.693333 75.946667-128.853333 107.52-204.8 71.68S93.866667 467.626667 130.56 392.533333z m115.2 302.933334c40.106667-63.146667 116.906667-90.453333 186.88-65.706667-50.346667 48.64-118.613333 72.533333-186.88 65.706667z" fill="#d4237a" p-id="16050"></path><path d="M238.08 524.8c-17.92-8.533333-25.6-27.306667-12.8-62.293333 17.92-9.386667 31.573333-8.533333 43.52-3.413334 17.92 8.533333 23.893333 23.893333 14.506667 44.373334-11.093333 24.746667-29.013333 29.866667-45.226667 21.333333zM366.933333 417.28c-5.973333-17.92-21.333333-34.986667-46.08-47.786667-40.96-21.333333-91.306667-9.386667-125.44 57.173334-30.72 63.146667-9.386667 106.666667 30.72 125.44 34.986667 17.92 75.093333 8.533333 91.306667-28.16 18.773333-37.546667 3.413333-68.266667-31.573333-84.48-12.8-5.973333-34.986667-8.533333-50.346667-1.706667 23.893333-44.373333 49.493333-49.493333 72.533333-37.546667 11.946667 5.973333 22.186667 17.92 25.6 28.16l33.28-11.093333zM591.36 448.853333c-140.8 0-252.586667 113.493333-252.586667 252.586667 0 140.8 113.493333 252.586667 252.586667 252.586667 140.8 0 252.586667-113.493333 252.586667-252.586667S732.16 448.853333 591.36 448.853333z m225.28 173.226667c-75.093333-8.533333-133.12-66.56-139.093333-139.093333 62.293333 23.04 115.2 73.386667 139.093333 139.093333zM506.88 482.133333c-8.533333 75.093333-66.56 133.12-139.093333 139.093334 23.893333-64.853333 75.093333-115.2 139.093333-139.093334z m-139.093333 307.2c75.093333 8.533333 133.12 66.56 139.093333 139.093334-64-23.04-115.2-73.386667-139.093333-139.093334z m72.533333-81.92c0-84.48 68.266667-151.893333 151.893333-151.893333s151.893333 68.266667 151.893334 151.893333-68.266667 151.893333-151.893334 151.893334-151.893333-67.413333-151.893333-151.893334z m235.52 223.573334c8.533333-75.093333 66.56-133.12 139.093333-139.093334-22.186667 63.146667-75.093333 113.493333-139.093333 139.093334z" fill="#d4237a" p-id="16051"></path><path d="M593.92 779.946667c-18.773333 0-34.986667-14.506667-37.546667-50.346667 11.946667-16.213333 25.6-21.333333 36.693334-21.333333 18.773333 0 31.573333 11.946667 31.573333 34.986666 0.853333 23.893333-12.8 36.693333-30.72 36.693334z m69.973333-153.6c-14.506667-12.8-34.133333-22.186667-62.293333-22.186667-46.08 0-87.893333 31.573333-87.893333 104.106667 0 69.973333 37.546667 99.84 81.066666 99.84 37.546667 0 71.68-25.6 71.68-66.56 0-43.52-27.306667-62.293333-65.706666-62.293334-14.506667 0-34.986667 8.533333-46.08 21.333334 1.706667-49.493333 23.893333-66.56 49.493333-66.56 12.8 0 27.306667 5.973333 34.986667 14.506666l24.746666-22.186666z" fill="#d4237a" p-id="16052"></path><path d="M502.613333 295.253333c-14.506667 139.093333 85.333333 264.533333 224.426667 280.746667 139.093333 14.506667 264.533333-85.333333 280.746667-224.426667 14.506667-139.093333-85.333333-264.533333-224.426667-280.746666s-264.533333 85.333333-280.746667 224.426666z m196.266667-204.8C682.666667 163.84 619.52 215.893333 546.133333 214.186667c29.013333-61.44 85.333333-107.52 152.746667-123.733334zM525.653333 382.293333c72.533333 16.213333 125.44 79.36 122.88 153.6-58.88-32.426667-104.96-87.04-122.88-153.6z m291.84 171.52c16.213333-72.533333 79.36-125.44 153.6-122.88-29.866667 60.586667-87.04 105.813333-153.6 122.88z m-74.24-81.92c-84.48-9.386667-144.213333-84.48-135.68-167.253333 9.386667-84.48 84.48-144.213333 167.253334-135.68 84.48 9.386667 144.213333 84.48 135.68 167.253333-8.533333 84.48-83.626667 144.213333-167.253334 135.68z m247.466667-209.066666c-72.533333-16.213333-125.44-80.213333-122.88-153.6 59.733333 29.013333 104.96 86.186667 122.88 153.6z" fill="#d4237a" p-id="16053"></path><path d="M832.853333 326.826667c-1.706667 18.773333-17.92 34.133333-53.76 34.133333-14.506667-12.8-17.92-27.306667-17.92-40.106667 1.706667-18.773333 14.506667-30.72 37.546667-28.16 23.893333 2.56 34.986667 17.066667 34.133333 34.133334z m-146.773333-85.333334c-14.506667 12.8-25.6 31.573333-28.16 58.88-5.12 46.08 22.186667 90.453333 94.72 98.133334 69.973333 8.533333 103.253333-27.306667 107.52-69.973334 5.12-37.546667-17.92-72.533333-58.88-77.653333-41.813333-4.266667-64 21.333333-67.413333 58.88-1.706667 14.506667 5.12 34.986667 16.213333 49.493333-49.493333-5.973333-63.146667-30.72-59.733333-55.466666 1.706667-12.8 9.386667-25.6 17.92-34.133334l-22.186667-28.16z" fill="#d4237a" p-id="16054"></path></svg>