<svg width="18" height="18" viewBox="0 0 18 18" fill="none" xmlns="http://www.w3.org/2000/svg">
<g id="Iconly/Bulk/Volume Down">
<g id="Iconly/Bulk/Volume Down_2">
<g id="Volume Down">
<path id="Fill 1" d="M11.5287 4.83792C11.4909 4.47316 11.4515 4.09472 11.3547 3.71708C11.0909 2.81365 10.3602 2.25001 9.57679 2.25001C9.1398 2.2484 8.58707 2.51733 8.27369 2.78949L5.67616 4.96273H4.31638C3.31563 4.96273 2.51094 5.7333 2.35898 6.84528C2.22985 7.91298 2.19835 9.9284 2.35898 11.1032C2.49834 12.278 3.26681 13.0373 4.31638 13.0373H5.67616L8.32408 15.2427C8.59573 15.4786 9.07524 15.7492 9.51616 15.7492C9.54451 15.75 9.5697 15.75 9.5949 15.75C10.3933 15.75 11.0964 15.1654 11.3602 14.2644C11.4602 13.8811 11.4948 13.522 11.5287 13.175L11.5641 12.8311C11.6995 11.7159 11.6995 6.27681 11.5641 5.16966L11.5287 4.83792Z" fill="currentColor"/>
<path id="Fill 4" opacity="0.4" d="M14.5697 4.87094C14.3548 4.55289 13.9249 4.47398 13.6107 4.6938C13.2989 4.91603 13.2218 5.35567 13.4383 5.67453C14.0406 6.56186 14.3721 7.74228 14.3721 9.00001C14.3721 10.2569 14.0406 11.4382 13.4383 12.3255C13.2218 12.6443 13.2989 13.084 13.6107 13.3062C13.7265 13.3883 13.8627 13.4318 14.0036 13.4318C14.2296 13.4318 14.4406 13.3183 14.5697 13.1291C15.3303 12.009 15.75 10.5428 15.75 9.00001C15.75 7.45724 15.3303 5.99097 14.5697 4.87094" fill="currentColor"/>
</g>
</g>
</g>
</svg>
