<svg width="61" height="61" viewBox="0 0 61 61" fill="none" xmlns="http://www.w3.org/2000/svg">
<g id="&#231;&#187;&#180;&#230;&#138;&#164;&#228;&#184;&#173; logo">
<path id="Vector" d="M36.1298 11.0814C35.4793 12.4751 35.1443 13.9951 35.1487 15.5331C35.1435 16.9011 35.4094 18.2566 35.9309 19.5212C36.4524 20.7859 37.2193 21.9348 38.1873 22.9014C39.1473 23.871 40.2905 24.6401 41.5505 25.164C42.8104 25.6878 44.1619 25.9559 45.5264 25.9527C47.0602 25.9586 48.5757 25.619 49.9603 24.9589C49.055 25.8779 47.9752 26.6067 46.7843 27.1025C45.5934 27.5983 44.3154 27.8512 43.0254 27.8462C42.3434 27.8431 41.6635 27.7716 40.9959 27.6327C40.4641 27.5206 39.9128 27.5433 39.3921 27.6987C38.8714 27.8541 38.3978 28.1372 38.0145 28.5223L19.1057 47.4984C19.0579 46.0704 18.4707 44.7135 17.4623 43.7012C16.454 42.6888 15.0995 42.0962 13.6717 42.0427L32.5613 23.0654C32.9463 22.6793 33.2289 22.2033 33.3833 21.6805C33.5378 21.1576 33.5593 20.6045 33.4458 20.0713C32.7634 16.7976 33.7534 13.4274 36.1197 11.0801H36.1298V11.0814ZM39.4289 39.6955L49.8154 50.1252C50.3924 50.7047 50.3924 51.6502 49.8154 52.2221C49.5373 52.496 49.1625 52.6496 48.7721 52.6496C48.3816 52.6496 48.0069 52.496 47.7287 52.2221L37.3409 41.7911L39.4289 39.6942V39.6955ZM41.7151 5.08306C41.475 5.08306 41.2246 5.11229 40.9755 5.14152C33.6174 6.30052 28.7221 13.3981 30.2611 20.7575L8.45871 42.6603C5.67939 45.4409 5.67939 49.9702 8.45871 52.7418C11.219 55.5148 15.7495 55.5148 18.4996 52.7418L40.3134 30.839C47.6423 32.3755 54.7208 27.479 55.8557 20.0814C56.1353 18.3048 55.4236 17.2907 54.4896 17.2907C54.0575 17.2907 53.586 17.5029 53.1234 17.9566L50.5271 20.5644C47.7669 23.3348 43.2363 23.3348 40.4761 20.5644C37.6968 17.7736 37.6968 13.2532 40.4761 10.4727L43.0737 7.86491C44.3712 6.56993 43.7281 5.07289 41.7177 5.08306H41.7151ZM11.8061 49.3818C10.3065 47.8758 11.402 45.3253 13.4798 45.3253C15.5576 45.3253 16.6721 47.8758 15.1624 49.3818C14.2296 50.3095 12.73 50.3095 11.8061 49.3818ZM8.43964 7.30448L5.08337 10.6646L9.26696 16.5561L12.777 18.4103L20.9904 26.658L24.3378 23.2966L16.1434 15.04L14.2969 11.5135L8.43964 7.30448ZM38.5914 35.8995L33.5716 40.9409C33.3498 41.1644 33.2253 41.4666 33.2253 41.7815C33.2253 42.0965 33.3498 42.3987 33.5716 42.6222L45.4285 54.5299C46.3179 55.4186 47.5237 55.9179 48.781 55.9179C50.0383 55.9179 51.2441 55.4186 52.1334 54.5299C53.0207 53.6344 53.5185 52.4247 53.5185 51.1641C53.5185 49.9035 53.0207 48.6938 52.1334 47.7983L40.274 35.8906C40.1633 35.7801 40.0318 35.6925 39.8871 35.6331C39.7424 35.5737 39.5873 35.5435 39.4309 35.5443C39.2744 35.5452 39.1197 35.577 38.9756 35.6379C38.8315 35.6989 38.701 35.7878 38.5914 35.8995Z" fill="currentColor"/>
</g>
</svg>
