<svg width="21" height="21" viewBox="0 0 21 21" fill="none" xmlns="http://www.w3.org/2000/svg">
<g id="icon_message_pmd 1" clip-path="url(#clip0_16_2106)">
<g id="0f9ce8745bbae5c29f77962ff66d1505-&#232;&#183;&#145;&#233;&#169;&#172;&#231;&#129;&#175;">
<path id="&#232;&#129;&#148;&#229;&#144;&#136; 158" d="M10.456 18.0841L5.8823 14.3256H2.19532C1.98832 14.3073 1.79534 14.2128 1.6542 14.0602C1.51306 13.9077 1.4338 13.7082 1.43164 13.5004V7.20419C1.43164 7.00773 1.50969 6.81932 1.6486 6.68041C1.78752 6.5415 1.9758 6.46346 2.17225 6.46346L5.88184 6.46012L10.3651 2.64575C10.4662 2.52935 10.6018 2.44803 10.752 2.41351C10.9022 2.37899 11.0593 2.39305 11.201 2.45366C11.3428 2.51428 11.4616 2.61832 11.5404 2.75079C11.6192 2.88327 11.654 3.03734 11.6396 3.1908L11.6548 17.5725C11.635 17.7559 11.5533 17.9271 11.4231 18.0578C11.293 18.1886 11.1222 18.2711 10.9389 18.2917C10.7578 18.2843 10.586 18.2104 10.456 18.0841ZM15.737 16.3182C15.6335 16.1512 15.6004 15.9499 15.6452 15.7586C15.6899 15.5673 15.8088 15.4016 15.9756 15.2978C16.7158 14.7463 17.2623 13.9745 17.5368 13.0933C17.8674 12.2274 18.0345 11.3077 18.0297 10.3809C17.9342 7.98166 17.1845 6.27255 15.8085 5.3013C15.648 5.18801 15.5392 5.0156 15.5058 4.822C15.4724 4.6284 15.5172 4.42946 15.6305 4.26896C15.7438 4.10845 15.9163 3.99953 16.1099 3.96614C16.3035 3.93276 16.5024 3.97764 16.6629 4.09093C17.7323 4.86513 18.5317 5.95561 18.9481 7.20848C19.2913 8.2118 19.4806 9.26127 19.5097 10.3213C19.524 11.4461 19.3252 12.5636 18.9236 13.6144C18.534 14.8004 17.7762 15.831 16.7603 16.5563C16.6777 16.6078 16.5855 16.6424 16.4895 16.6582C16.3935 16.6741 16.2953 16.6708 16.2005 16.6487C16.1057 16.6265 16.0162 16.5859 15.9372 16.5291C15.8581 16.4723 15.7911 16.4005 15.7398 16.3177L15.737 16.3182ZM13.5065 13.927C13.3766 13.7797 13.3105 13.5868 13.3227 13.3908C13.3348 13.1947 13.4244 13.0115 13.5716 12.8813C14.4364 12.1177 14.8201 11.6433 14.8535 10.3217C14.885 9.09657 14.4907 8.33484 13.5338 7.77357C13.4479 7.7254 13.3725 7.66059 13.312 7.58292C13.2514 7.50526 13.207 7.4163 13.1812 7.32125C13.1555 7.2262 13.1488 7.12697 13.1619 7.02936C13.1749 6.93176 13.2074 6.83773 13.2572 6.75278C13.307 6.66784 13.3732 6.59368 13.452 6.53464C13.5308 6.47561 13.6208 6.43288 13.7163 6.40896C13.8118 6.38505 13.9112 6.38042 14.0085 6.39535C14.1059 6.41027 14.1991 6.44446 14.283 6.49591C14.9256 6.85246 15.4583 7.37818 15.8232 8.01603C16.2049 8.736 16.3818 9.54689 16.3345 10.3604C16.3441 11.1168 16.1662 11.8639 15.8167 12.5348C15.4841 13.0909 15.0565 13.5842 14.5534 13.9924C14.406 14.1226 14.2127 14.1889 14.0164 14.1767C13.8202 14.1645 13.6368 14.0744 13.5065 13.927Z" fill="currentColor"/>
</g>
</g>
<defs>
<clipPath id="clip0_16_2106">
<rect width="21" height="21" fill="white"/>
</clipPath>
</defs>
</svg>
