<svg xmlns="http://www.w3.org/2000/svg" width="22" height="19" viewBox="0 0 22 19">
  <defs>
    <style>
    </style>
  </defs>
  <g id="组_27" data-name="组 27" transform="translate(-119.522 -187.942)">
    <path id="路径_15" data-name="路径 15" class="cls-1" d="M6579.53,9700.836l-10.479-8.49a1.218,1.218,0,0,1-.209-1.676,1.135,1.135,0,0,1,.917-.466,1.152,1.152,0,0,1,.7.233l.021.014,9.326,7.563,8.891-7.539a1.124,1.124,0,0,1,.735-.278,1.143,1.143,0,0,1,.9.443,1.187,1.187,0,0,1,.261.86,1.219,1.219,0,0,1-.421.823l-10.041,8.508a.469.469,0,0,1-.6,0Zm0-8.253-10.479-8.494a1.225,1.225,0,0,1-.209-1.672,1.13,1.13,0,0,1,.917-.467,1.166,1.166,0,0,1,.7.229l.021.017,9.326,7.564,8.891-7.54a1.112,1.112,0,0,1,.735-.276,1.14,1.14,0,0,1,.9.439,1.2,1.2,0,0,1,.261.867,1.222,1.222,0,0,1-.421.819l-10.041,8.506a.466.466,0,0,1-.3.112A.489.489,0,0,1,6579.53,9692.583Z" transform="translate(-6449.077 -9494.001)"/>
  </g>
</svg>
