<svg xmlns="http://www.w3.org/2000/svg" width="145" height="143.317" viewBox="0 0 145 143.317">
  <defs>
    <style>
      .cls-1 {
        opacity: 0.21;
      }
    </style>
  </defs>
  <path id="路径_212" data-name="路径 212" class="cls-1" d="M80.7,142.676H38.382A12,12,0,0,1,26.3,130.743V65.069H44.46A24.112,24.112,0,0,0,68.623,41.194V23.264h48.334A12,12,0,0,1,129.032,35.2v17.93a6.082,6.082,0,0,0,12.163.015V35.19a24.112,24.112,0,0,0-24.164-23.875H50.537L14.285,47.131v83.611a24.117,24.117,0,0,0,24.164,23.875H80.772a5.973,5.973,0,1,0-.067-11.941ZM56.534,23.264v17.93A12,12,0,0,1,44.482,53.128H26.293L56.534,23.256Zm0,53.74H44.46a6,6,0,1,0,0,12H56.534a6.037,6.037,0,0,0,6.085-5.989V83a6.1,6.1,0,0,0-6.085-6ZM44.46,100.871a6,6,0,1,0,0,12.008H56.534a6.008,6.008,0,1,0,0-12.015H44.46ZM157.5,144.385,134.37,121.552a35.156,35.156,0,0,0,6.743-20.681c0-19.712-16.237-35.8-36.245-35.8a35.806,35.806,0,1,0,20.977,64.941l23.128,22.833a6.063,6.063,0,0,0,8.6,0,5.989,5.989,0,0,0-.074-8.459Zm-52.63-19.638a23.873,23.873,0,1,1,24.164-23.875A24.06,24.06,0,0,1,104.868,124.746Z" transform="translate(-14.285 -11.315)"/>
</svg>
