<?xml version="1.0" encoding="UTF-8"?>
<svg version="1.1" xmlns="http://www.w3.org/2000/svg" width="60" height="60">
<path d="M0 0 C19.8 0 39.6 0 60 0 C60 19.8 60 39.6 60 60 C40.2 60 20.4 60 0 60 C0 40.2 0 20.4 0 0 Z " fill="#1676FA" transform="translate(0,0)"/>
<path d="M0 0 C3.51732742 1.28517733 5.4770624 2.37247488 7.875 5.25 C9.78372573 9.91577402 9.50878914 13.5301647 7.875 18.25 C5.55557782 21.65181919 3.87765844 22.65773362 0 24 C-3.58361927 24.58641043 -5.8399901 24.7333661 -8.96484375 22.7578125 C-13.10903171 19.35093405 -14.69964549 17.2312049 -15.4375 11.75 C-14.8560227 6.76590888 -12.62718402 4.32648483 -9 1 C-5.92805092 -0.53597454 -3.39755707 -0.2265038 0 0 Z " fill="#227FFF" transform="translate(44,18)"/>
<path d="M0 0 C1.98 0 3.96 0 6 0 C8.046875 2.08203125 8.046875 2.08203125 9.75 4.8125 C10.32234375 5.70582031 10.8946875 6.59914063 11.484375 7.51953125 C12.23460937 8.74736328 12.23460937 8.74736328 13 10 C13.99 11.485 13.99 11.485 15 13 C15.33 8.71 15.66 4.42 16 0 C17.65 0 19.3 0 21 0 C21 7.92 21 15.84 21 24 C19.02 24 17.04 24 15 24 C13.19740027 21.82708691 11.99306208 20.06616933 10.6875 17.625 C10.34138672 17.02171875 9.99527344 16.4184375 9.63867188 15.796875 C8.36442017 13.5613457 7.15076093 11.30152187 6 9 C5.67 13.95 5.34 18.9 5 24 C3.35 24 1.7 24 0 24 C0 16.08 0 8.16 0 0 Z " fill="#F0F6FF" transform="translate(7,18)"/>
<path d="M0 0 C3.51732742 1.28517733 5.4770624 2.37247488 7.875 5.25 C9.78372573 9.91577402 9.50878914 13.5301647 7.875 18.25 C5.55557782 21.65181919 3.87765844 22.65773362 0 24 C-3.58361927 24.58641043 -5.8399901 24.7333661 -8.96484375 22.7578125 C-13.10903171 19.35093405 -14.69964549 17.2312049 -15.4375 11.75 C-14.8560227 6.76590888 -12.62718402 4.32648483 -9 1 C-5.92805092 -0.53597454 -3.39755707 -0.2265038 0 0 Z M-11 7 C-12.14888518 10.94929279 -12.43129396 13.02958859 -10.75 16.8125 C-9.01308468 19.2102573 -9.01308468 19.2102573 -6 21 C-0.20179078 20.91861271 -0.20179078 20.91861271 4.5 17.875 C6.43202533 14.17195144 6.73590357 12.12105997 6 8 C3.113795 4.77019916 1.22140391 3.22433949 -3.0625 2.4375 C-6.82662066 3.15828906 -8.43724531 4.14435905 -11 7 Z " fill="#ECF4FF" transform="translate(44,18)"/>
<path d="M0 0 C0.99 0 1.98 0 3 0 C3 0.66 3 1.32 3 2 C3.99 2.33 4.98 2.66 6 3 C6.33 5.64 6.66 8.28 7 11 C6.360625 11.12375 5.72125 11.2475 5.0625 11.375 C4.381875 11.58125 3.70125 11.7875 3 12 C2.67 12.66 2.34 13.32 2 14 C1.34 14 0.68 14 0 14 C0 13.34 0 12.68 0 12 C-0.66 12 -1.32 12 -2 12 C-2 8.7 -2 5.4 -2 2 C-1.34 2 -0.68 2 0 2 C0 1.34 0 0.68 0 0 Z " fill="#94C1FF" transform="translate(39,23)"/>
<path d="M0 0 C0.99 0 1.98 0 3 0 C3 0.99 3 1.98 3 3 C2.34 3 1.68 3 1 3 C1 3.99 1 4.98 1 6 C2.32 6 3.64 6 5 6 C4.67 6.66 4.34 7.32 4 8 C3.01 7.67 2.02 7.34 1 7 C1 8.32 1 9.64 1 11 C1.66 11 2.32 11 3 11 C2.67 11.99 2.34 12.98 2 14 C1.34 14 0.68 14 0 14 C0 13.34 0 12.68 0 12 C-0.66 12 -1.32 12 -2 12 C-2 8.7 -2 5.4 -2 2 C-1.34 2 -0.68 2 0 2 C0 1.34 0 0.68 0 0 Z " fill="#DCEBFF" transform="translate(39,23)"/>
</svg>
