<svg width="20" height="20" viewBox="0 0 20 20" fill="none" xmlns="http://www.w3.org/2000/svg">
<g id="&#230;&#137;&#139;&#230;&#156;&#186; 1">
<path id="Vector" d="M16.0237 16.48C16.0237 16.8081 15.9581 17.1132 15.8269 17.3954C15.6956 17.6776 15.5152 17.9269 15.2855 18.1434C15.0559 18.36 14.7868 18.5306 14.4784 18.6552C14.17 18.7799 13.8387 18.8423 13.4843 18.8423H6.49616C6.14183 18.8423 5.81046 18.7799 5.50206 18.6552C5.19366 18.5306 4.92463 18.36 4.69498 18.1434C4.46532 17.9269 4.28487 17.6776 4.15364 17.3954C4.0224 17.1132 3.95679 16.8081 3.95679 16.48V3.29107C3.95679 2.96299 4.0224 2.65459 4.15364 2.36587C4.28487 2.07716 4.46532 1.82453 4.69498 1.608C4.92463 1.39146 5.19366 1.22086 5.50206 1.09619C5.81046 0.971516 6.14183 0.90918 6.49616 0.90918H13.4843C13.8387 0.90918 14.17 0.971516 14.4784 1.09619C14.7868 1.22086 15.0559 1.39146 15.2855 1.608C15.5152 1.82453 15.6956 2.07716 15.8269 2.36587C15.9581 2.65459 16.0237 2.96299 16.0237 3.29107V16.48ZM14.4292 4.23595H5.53159V15.5155H14.4292V4.23595ZM9.98041 16.0667C9.70482 16.0667 9.46532 16.1651 9.26191 16.3619C9.05849 16.5588 8.95679 16.8016 8.95679 17.0903C8.95679 17.3659 9.05849 17.6054 9.26191 17.8088C9.46532 18.0122 9.70482 18.1139 9.98041 18.1139C10.2691 18.1139 10.5119 18.0122 10.7088 17.8088C10.9056 17.6054 11.004 17.3659 11.004 17.0903C11.004 16.8016 10.9056 16.5588 10.7088 16.3619C10.5119 16.1651 10.2691 16.0667 9.98041 16.0667ZM11.5552 2.56272C11.5552 2.45774 11.5224 2.37572 11.4568 2.31666C11.3912 2.2576 11.319 2.22808 11.2403 2.22808H8.74025C8.67464 2.22808 8.60574 2.2576 8.53356 2.31666C8.46138 2.37572 8.42529 2.45774 8.42529 2.56272C8.42529 2.66771 8.4581 2.74973 8.52372 2.80879C8.58933 2.86784 8.66151 2.89737 8.74025 2.89737H11.2403C11.319 2.89737 11.3912 2.86784 11.4568 2.80879C11.5224 2.74973 11.5552 2.66771 11.5552 2.56272Z" fill="currentColor"/>
</g>
</svg>
