<svg width="28" height="28" viewBox="0 0 28 28" fill="none" xmlns="http://www.w3.org/2000/svg">
<g id="&#231;&#131;&#173;&#233;&#148;&#128; _iocn" clip-path="url(#clip0_29249_2211)">
<g id="&#231;&#131;&#173;&#233;&#148;&#128; _iocn_2">
<path id="&#232;&#183;&#175;&#229;&#190;&#132; 2523" d="M12.1072 1.40002C12.1072 1.40002 19.036 5.89102 18.2674 12.2876C18.952 11.2978 21.2367 11.602 21.4649 7.10803C22.4547 8.55423 25.956 13.5029 25.0432 17.7673C24.1304 22.0317 21.2368 27.2874 16.2108 26.9794C11.1848 26.6714 7.53051 21.5743 8.90111 15.7111C8.36771 16.6253 5.47563 17.7675 6.84623 24.8473C5.24743 23.4767 0.984177 20.8137 3.64838 12.2849C5.17018 8.63089 8.67306 6.72722 9.43465 6.11682C10.1963 5.50642 12.411 3.45662 12.1072 1.40002Z" fill="currentColor"/>
</g>
<g id="&#231;&#131;&#173;&#233;&#148;&#128; _iocn_3" clip-path="url(#clip1_29249_2211)">
<g id="&#231;&#131;&#173;&#233;&#148;&#128; _iocn_4">
<path id="&#232;&#183;&#175;&#229;&#190;&#132; 2523_2" d="M12.1072 1.40002C12.1072 1.40002 19.036 5.89102 18.2674 12.2876C18.952 11.2978 21.2367 11.602 21.4649 7.10803C22.4547 8.55423 25.956 13.5029 25.0432 17.7673C24.1304 22.0317 21.2368 27.2874 16.2108 26.9794C11.1848 26.6714 7.53051 21.5743 8.90111 15.7111C8.36771 16.6253 5.47563 17.7675 6.84623 24.8473C5.24743 23.4767 0.984177 20.8137 3.64838 12.2849C5.17018 8.63089 8.67306 6.72722 9.43465 6.11682C10.1963 5.50642 12.411 3.45662 12.1072 1.40002Z" fill="currentColor"/>
</g>
</g>
</g>
<defs>
<clipPath id="clip0_29249_2211">
<rect width="28" height="28" fill="white"/>
</clipPath>
<clipPath id="clip1_29249_2211">
<rect width="28" height="28" fill="white"/>
</clipPath>
</defs>
</svg>
