<svg width="18" height="18" viewBox="0 0 18 18" fill="none" xmlns="http://www.w3.org/2000/svg">
<g id="Frame" clip-path="url(#clip0_114_1730)">
<g id="Clip path group">
<mask id="mask0_114_1730" style="mask-type:luminance" maskUnits="userSpaceOnUse" x="0" y="0" width="18" height="18">
<g id="3b8409b5fb390f72ff65226bf194a6f7-clip-path">
<path id="&#231;&#159;&#169;&#229;&#189;&#162; 3360" d="M18 0H0V18H18V0Z" fill="white"/>
</g>
</mask>
<g mask="url(#mask0_114_1730)">
<g id="3b8409b5fb390f72ff65226bf194a6f7-comm_icon_cz_jl">
<path id="&#232;&#129;&#148;&#229;&#144;&#136; 619" d="M9.95674 17.1862C8.85638 16.731 7.94778 15.9083 7.38594 14.8584C6.82411 13.8085 6.6438 12.5961 6.87555 11.4281C7.1073 10.2601 7.73678 9.20858 8.6569 8.45271C9.57703 7.69683 10.7308 7.2834 11.9216 7.28282H11.9258C12.6869 7.28278 13.4385 7.45153 14.1265 7.77689C14.8146 8.10225 15.4219 8.57602 15.9047 9.16431C16.3876 9.75259 16.7341 10.4409 16.9191 11.1792C17.1041 11.9175 17.1231 12.6874 16.9747 13.4339C16.8263 14.1804 16.5141 14.8845 16.0607 15.4959C15.6074 16.1072 15.0243 16.6104 14.3532 16.9693C13.682 17.3282 12.9396 17.5339 12.1794 17.5714C11.4193 17.6088 10.6599 17.4774 9.95674 17.1862ZM10.4037 8.75813C9.49209 9.13508 8.75331 9.83782 8.33108 10.7294C7.90886 11.621 7.83351 12.6376 8.11952 13.5818C8.40552 14.5259 9.03241 15.33 9.87843 15.8374C10.7244 16.3448 11.729 16.5191 12.6966 16.3268C13.6641 16.1344 14.5256 15.5892 15.1133 14.7968C15.7009 14.0045 15.9728 13.0216 15.876 12.0399C15.7792 11.0582 15.3206 10.1477 14.5895 9.48542C13.8584 8.8231 12.9071 8.45645 11.9206 8.45679C11.4011 8.45773 10.8869 8.56009 10.4067 8.75844L10.4037 8.75813ZM2.79946 16.0609C2.24062 16.0601 1.70489 15.8375 1.30988 15.4422C0.914863 15.0469 0.692784 14.511 0.692444 13.9521V2.80103C0.692954 2.24238 0.915168 1.70661 1.31019 1.31159C1.70521 0.916571 2.24082 0.694358 2.79946 0.693848H11.4173C11.9758 0.694529 12.5111 0.916894 12.9059 1.31191C13.3008 1.70692 13.5228 2.24252 13.5232 2.80103V4.91009H12.35V2.80228C12.3496 2.55519 12.2512 2.31813 12.0765 2.14342C11.9018 1.9687 11.665 1.87044 11.4179 1.87001H2.79946C2.55245 1.87069 2.31573 1.96907 2.14107 2.14373C1.96641 2.31839 1.86803 2.55527 1.86735 2.80228V13.9176V13.9515C1.86735 14.1987 1.96547 14.4359 2.14029 14.6107C2.3151 14.7855 2.55225 14.8838 2.79946 14.8838H5.4139V16.0584L2.79946 16.0609ZM13.5631 14.8775L11.5005 12.8096C11.4286 12.7372 11.3783 12.6462 11.3551 12.5468V12.5437C11.3498 12.5276 11.3466 12.5108 11.3456 12.4938V12.4881V12.469C11.3292 12.2229 11.3263 11.9762 11.3366 11.7298V9.89757C11.3366 9.74194 11.3984 9.59295 11.5085 9.48291C11.6185 9.37287 11.7677 9.3109 11.9233 9.3109C12.0789 9.3109 12.2282 9.37287 12.3383 9.48291C12.4483 9.59295 12.5101 9.74194 12.5101 9.89757V12.2179L14.3657 14.0765C14.4431 14.1451 14.5003 14.2338 14.531 14.3326C14.5617 14.4314 14.5646 14.5367 14.5398 14.6371C14.5149 14.7375 14.4631 14.8293 14.3899 14.9023C14.3166 14.9754 14.2248 15.0268 14.1243 15.0514C14.08 15.0622 14.0346 15.0676 13.989 15.0677C13.909 15.0675 13.8298 15.0505 13.7568 15.0178C13.6837 14.9851 13.6181 14.9374 13.5647 14.8778L13.5631 14.8775ZM3.81288 8.4571C3.65955 8.45351 3.51371 8.39009 3.40654 8.28038C3.29937 8.17067 3.23939 8.02349 3.23939 7.87012C3.23939 7.71675 3.29937 7.56925 3.40654 7.45954C3.51371 7.34983 3.65955 7.28641 3.81288 7.28282H5.84142C5.99475 7.28641 6.14059 7.34983 6.24776 7.45954C6.35493 7.56925 6.41491 7.71675 6.41491 7.87012C6.41491 8.02349 6.35493 8.17067 6.24776 8.28038C6.14059 8.39009 5.99475 8.45351 5.84142 8.4571H3.81288ZM3.81288 5.41765C3.6573 5.41765 3.50807 5.35596 3.39806 5.24595C3.28805 5.13594 3.22636 4.98656 3.22636 4.83098C3.22636 4.67541 3.28805 4.52634 3.39806 4.41633C3.50807 4.30632 3.6573 4.24431 3.81288 4.24431H10.4022C10.5577 4.24431 10.707 4.30632 10.817 4.41633C10.927 4.52634 10.9888 4.67541 10.9888 4.83098C10.9888 4.98656 10.927 5.13594 10.817 5.24595C10.707 5.35596 10.5577 5.41765 10.4022 5.41765H3.81288Z" fill="currentColor"/>
</g>
</g>
</g>
</g>
<defs>
<clipPath id="clip0_114_1730">
<rect width="18" height="18" fill="white"/>
</clipPath>
</defs>
</svg>
