<svg width="28" height="23" viewBox="0 0 28 23" fill="none" xmlns="http://www.w3.org/2000/svg">
<g id="Frame" clip-path="url(#clip0_117_1928)">
<path id="b04bf3ec746bb3d76dc0b1c2a2e1580a-cz" d="M6.06882 20.2072C5.17404 20.2062 4.31622 19.8597 3.68352 19.2437C3.05082 18.6277 2.69493 17.7926 2.69385 16.9215V5.75007C2.69493 4.87897 3.05082 4.04384 3.68352 3.42788C4.31622 2.81191 5.17404 2.46541 6.06882 2.46436H21.5913C22.4861 2.46527 23.344 2.81176 23.9767 3.42775C24.6095 4.04375 24.9654 4.87893 24.9663 5.75007V7.06437H16.3849C15.5793 7.06437 14.8067 7.3759 14.237 7.93048C13.6674 8.48505 13.3474 9.23721 13.3474 10.0215C13.3474 10.8058 13.6674 11.5579 14.237 12.1125C14.8067 12.6671 15.5793 12.9786 16.3849 12.9786H24.9683V16.9215C24.9674 17.7927 24.6115 18.6278 23.9788 19.2438C23.3461 19.8598 22.4881 20.2063 21.5933 20.2072H6.06882ZM6.4545 16.5327V17.8668C6.4545 18.0385 6.52453 18.2031 6.64921 18.3244C6.77388 18.4458 6.94296 18.514 7.11928 18.514C7.29559 18.514 7.46473 18.4458 7.58941 18.3244C7.71408 18.2031 7.78411 18.0385 7.78411 17.8668V16.5327C7.78411 16.361 7.71408 16.1964 7.58941 16.075C7.46473 15.9536 7.29559 15.8855 7.11928 15.8855C6.94296 15.8855 6.77388 15.9536 6.64921 16.075C6.52453 16.1964 6.4545 16.361 6.4545 16.5327ZM6.4545 12.6642V13.9983C6.4545 14.0833 6.47165 14.1675 6.50506 14.246C6.53847 14.3246 6.58747 14.3959 6.64921 14.456C6.71094 14.5161 6.78421 14.5638 6.86487 14.5963C6.94553 14.6288 7.03197 14.6456 7.11928 14.6456C7.20658 14.6456 7.29302 14.6288 7.37368 14.5963C7.45434 14.5638 7.52767 14.5161 7.58941 14.456C7.65114 14.3959 7.70008 14.3246 7.73349 14.246C7.7669 14.1675 7.78411 14.0833 7.78411 13.9983V12.6642C7.78411 12.4926 7.71408 12.3279 7.58941 12.2066C7.46473 12.0852 7.29559 12.017 7.11928 12.017C6.94296 12.017 6.77388 12.0852 6.64921 12.2066C6.52453 12.3279 6.4545 12.4926 6.4545 12.6642ZM6.4545 8.79574V10.1299C6.4545 10.2149 6.47165 10.299 6.50506 10.3775C6.53847 10.4561 6.58747 10.5274 6.64921 10.5875C6.71094 10.6476 6.78421 10.6953 6.86487 10.7278C6.94553 10.7604 7.03197 10.7771 7.11928 10.7771C7.20658 10.7771 7.29302 10.7604 7.37368 10.7278C7.45434 10.6953 7.52767 10.6476 7.58941 10.5875C7.65114 10.5274 7.70008 10.4561 7.73349 10.3775C7.7669 10.299 7.78411 10.2149 7.78411 10.1299V8.79574C7.78411 8.71074 7.7669 8.62659 7.73349 8.54806C7.70008 8.46954 7.65114 8.3982 7.58941 8.3381C7.52767 8.278 7.45434 8.23032 7.37368 8.1978C7.29302 8.16527 7.20658 8.14852 7.11928 8.14852C7.03197 8.14852 6.94553 8.16527 6.86487 8.1978C6.78421 8.23032 6.71094 8.278 6.64921 8.3381C6.58747 8.3982 6.53847 8.46954 6.50506 8.54806C6.47165 8.62659 6.4545 8.71074 6.4545 8.79574ZM6.4545 4.92728V6.2614C6.4545 6.43306 6.52453 6.59769 6.64921 6.71907C6.77388 6.84045 6.94296 6.90862 7.11928 6.90862C7.29559 6.90862 7.46473 6.84045 7.58941 6.71907C7.71408 6.59769 7.78411 6.43306 7.78411 6.2614V4.92728C7.78411 4.75562 7.71408 4.59099 7.58941 4.46961C7.46473 4.34824 7.29559 4.28006 7.11928 4.28006C6.94296 4.28006 6.77388 4.34824 6.64921 4.46961C6.52453 4.59099 6.4545 4.75562 6.4545 4.92728ZM15.3497 10.0173C15.3497 9.72488 15.4388 9.43905 15.6057 9.19592C15.7725 8.95279 16.0097 8.76328 16.2872 8.65138C16.5647 8.53947 16.87 8.51021 17.1646 8.56725C17.4592 8.6243 17.7298 8.76512 17.9421 8.97188C18.1545 9.17865 18.2992 9.44207 18.3578 9.72886C18.4164 10.0157 18.3863 10.3129 18.2714 10.5831C18.1564 10.8532 17.9618 11.0841 17.712 11.2466C17.4623 11.409 17.1687 11.4957 16.8684 11.4957C16.4663 11.4957 16.0806 11.3405 15.7959 11.0641C15.5113 10.7877 15.3508 10.4127 15.3497 10.0213V10.0173Z" fill="currentColor"/>
</g>
<defs>
<clipPath id="clip0_117_1928">
<rect width="27" height="23" fill="white" transform="translate(0.5)"/>
</clipPath>
</defs>
</svg>
