<svg width="14" height="14" viewBox="0 0 14 14" fill="none" xmlns="http://www.w3.org/2000/svg">
<g id="Group 652">
<path id="Vector" d="M9.13564 10.0966C9.782 9.53712 10.7949 8.4663 11.0843 6.99994C11.5571 4.64606 11.0843 3.40159 9.06811 0.439941C9.06811 0.439941 13.1006 2.10888 13.1006 6.99994C13.1006 9.54677 12.0973 10.9745 11.0843 12.0454L12.6086 13.5599L7.06152 13.5599L7.06152 8.01288L9.13564 10.0966ZM3.96482 3.90324C3.31847 4.46277 2.30552 5.53359 2.01611 6.99994C1.54341 9.35383 2.01611 10.5983 4.03235 13.5599C4.03235 13.5599 -0.000124478 11.891 -0.000124264 6.99994C-0.000124153 4.45312 1.00317 3.02535 2.01611 1.95453L0.491877 0.439941L6.03894 0.439941L6.03894 5.987L3.96482 3.90324Z" fill="currentColor"/>
</g>
</svg>
