<svg width="17" height="16" viewBox="0 0 17 16" fill="none" xmlns="http://www.w3.org/2000/svg">
<g id="Frame" clip-path="url(#clip0_14_2173)">
<g id="fefd6c7fa54dfad8f9e5d468c844f2a4-login_icon_zj">
<path id="&#232;&#183;&#175;&#229;&#190;&#132; 15109" d="M1.63198 14.8513C1.45799 14.8515 1.28535 14.8166 1.12536 14.7488C0.965364 14.681 0.821503 14.5815 0.701422 14.4566C0.57846 14.3279 0.482463 14.176 0.41989 14.0099C0.357318 13.8439 0.329455 13.6671 0.337203 13.4899C0.394915 12.5413 0.65519 11.6157 1.10173 10.7749C1.37644 10.2514 1.71981 9.76638 2.12286 9.3323C2.57911 8.84494 3.1073 8.42903 3.68933 8.0989L3.90655 7.9739L4.08505 8.14463C4.95385 8.97259 6.11236 9.43426 7.31708 9.43264C8.52188 9.43471 9.68055 8.97297 10.5491 8.14463L10.7283 7.9739L10.9435 8.0989C11.2304 8.26145 11.5047 8.44525 11.7638 8.64862C11.1701 9.00064 10.6785 9.49912 10.3365 10.0956C9.99446 10.692 9.81376 11.3661 9.81214 12.0523C9.81077 12.5721 9.91336 13.0871 10.114 13.5673C10.3147 14.0476 10.6092 14.4835 10.9809 14.85V14.8516L1.63198 14.8513ZM13.1374 14.0303V12.711H11.8071C11.631 12.711 11.4618 12.6415 11.3373 12.5179C11.2127 12.3943 11.1424 12.2267 11.1424 12.0519C11.1422 11.9653 11.1596 11.8794 11.1929 11.7993C11.2262 11.7191 11.2749 11.6463 11.3366 11.585C11.3983 11.5236 11.4718 11.4749 11.5525 11.4417C11.6332 11.4084 11.7198 11.3913 11.8071 11.3913H13.1374V10.072C13.1374 9.98534 13.1544 9.89954 13.1879 9.81952C13.2213 9.7395 13.2705 9.66678 13.3323 9.60557C13.3941 9.54436 13.4675 9.49589 13.5482 9.46283C13.6289 9.42977 13.7148 9.41281 13.8021 9.41294C13.8895 9.41272 13.976 9.42964 14.0568 9.46267C14.1375 9.4957 14.2109 9.54418 14.2727 9.60541C14.3345 9.66664 14.3837 9.73938 14.417 9.81944C14.4504 9.89949 14.4677 9.98533 14.4676 10.072V11.3913H15.7971C15.9737 11.3914 16.1428 11.461 16.2677 11.5849C16.3925 11.7088 16.4625 11.8767 16.4626 12.0519C16.4621 12.2269 16.3919 12.3945 16.267 12.518C16.1422 12.6415 15.9735 12.711 15.7971 12.711H14.4676V14.0303C14.4677 14.117 14.4504 14.2028 14.417 14.283C14.3837 14.3631 14.3344 14.436 14.2727 14.4973C14.2109 14.5587 14.1382 14.6074 14.0574 14.6406C13.9767 14.6739 13.8895 14.6909 13.8021 14.6909C13.6256 14.6909 13.4564 14.6212 13.3316 14.4973C13.2068 14.3734 13.1367 14.2055 13.1367 14.0303H13.1374ZM4.53589 7.59996C4.17013 7.24335 3.87935 6.81784 3.68145 6.34849C3.48356 5.87914 3.38197 5.3754 3.38286 4.86664C3.382 4.35749 3.48357 3.85327 3.68145 3.38348C3.87934 2.9137 4.17012 2.48779 4.53589 2.13064C5.27633 1.40397 6.27622 0.997839 7.31773 1.00124C8.35823 0.997993 9.35776 1.40417 10.097 2.13064C10.4634 2.48742 10.7544 2.91316 10.9527 3.383C11.151 3.85283 11.2522 4.3573 11.2513 4.86664C11.2523 5.37559 11.151 5.87957 10.9527 6.34898C10.7544 6.81839 10.4634 7.24372 10.097 7.59996C9.73166 7.96095 9.29809 8.24687 8.8212 8.44135C8.34432 8.63582 7.83334 8.73501 7.31773 8.73326C6.8016 8.73512 6.29045 8.636 5.81295 8.44159C5.33546 8.24718 4.90125 7.96131 4.53523 7.60028L4.53589 7.59996Z" fill="currentColor"/>
</g>
</g>
<defs>
<clipPath id="clip0_14_2173">
<rect width="16.8" height="16" fill="white"/>
</clipPath>
</defs>
</svg>
