<svg width="23" height="23" viewBox="0 0 23 23" fill="none" xmlns="http://www.w3.org/2000/svg">
<g id="R$">
<path id="R$_2" d="M11.214 9.288C11.214 9.996 11.016 10.65 10.62 11.25C10.224 11.85 9.57 12.306 8.658 12.618L10.746 18H6.732L5.148 13.014H4.95L3.888 18H0L2.43 6.57H7.164C7.716 6.57 8.238 6.606 8.73 6.678C9.222 6.738 9.648 6.87 10.008 7.074C10.38 7.266 10.674 7.542 10.89 7.902C11.106 8.25 11.214 8.712 11.214 9.288ZM6.03 11.862C6.342 11.862 6.606 11.76 6.822 11.556C7.05 11.34 7.23 11.082 7.362 10.782C7.506 10.482 7.608 10.164 7.668 9.828C7.728 9.48 7.758 9.18 7.758 8.928C7.758 8.616 7.704 8.352 7.596 8.136C7.488 7.908 7.254 7.794 6.894 7.794H6.084L5.184 11.862H6.03ZM14.9006 18.108C14.3246 18.048 13.8146 17.952 13.3706 17.82C12.9266 17.688 12.5186 17.502 12.1466 17.262L12.5966 15.984C12.8486 16.128 13.1186 16.254 13.4066 16.362C13.7066 16.458 14.0006 16.542 14.2886 16.614C14.5766 16.674 14.8526 16.722 15.1166 16.758C15.3806 16.794 15.6026 16.812 15.7826 16.812C16.1426 16.812 16.4366 16.758 16.6646 16.65C16.8926 16.542 17.0726 16.41 17.2046 16.254C17.3486 16.086 17.4446 15.906 17.4926 15.714C17.5526 15.522 17.5826 15.342 17.5826 15.174C17.5826 14.898 17.5226 14.67 17.4026 14.49C17.2826 14.298 17.1206 14.136 16.9166 14.004C16.7126 13.872 16.4666 13.764 16.1786 13.68C15.9026 13.584 15.5966 13.488 15.2606 13.392C14.9606 13.308 14.6486 13.206 14.3246 13.086C14.0126 12.966 13.7246 12.798 13.4606 12.582C13.1966 12.366 12.9806 12.09 12.8126 11.754C12.6446 11.406 12.5606 10.962 12.5606 10.422C12.5606 9.714 12.7046 9.12 12.9926 8.64C13.2926 8.148 13.6766 7.752 14.1446 7.452C14.6126 7.14 15.1286 6.906 15.6926 6.75C16.2686 6.594 16.8266 6.492 17.3666 6.444L17.6726 5.04H19.6346L19.2926 6.444C19.7366 6.492 20.1326 6.57 20.4806 6.678C20.8286 6.786 21.1466 6.924 21.4346 7.092L20.9846 8.388C20.5406 8.196 20.1086 8.034 19.6886 7.902C19.2686 7.77 18.8006 7.704 18.2846 7.704C17.8646 7.704 17.5166 7.752 17.2406 7.848C16.9646 7.932 16.7426 8.052 16.5746 8.208C16.4186 8.364 16.3046 8.538 16.2326 8.73C16.1606 8.922 16.1246 9.114 16.1246 9.306C16.1246 9.618 16.1966 9.864 16.3406 10.044C16.4966 10.224 16.7006 10.368 16.9526 10.476C17.2046 10.584 17.4986 10.674 17.8346 10.746C18.1826 10.818 18.5546 10.908 18.9506 11.016C19.2506 11.1 19.5506 11.208 19.8506 11.34C20.1506 11.472 20.4146 11.652 20.6426 11.88C20.8826 12.096 21.0746 12.384 21.2186 12.744C21.3626 13.092 21.4346 13.524 21.4346 14.04C21.4346 14.712 21.3146 15.288 21.0746 15.768C20.8346 16.248 20.5046 16.65 20.0846 16.974C19.6646 17.298 19.1726 17.55 18.6086 17.73C18.0566 17.91 17.4686 18.03 16.8446 18.09L16.4126 19.926H14.5226L14.9006 18.108Z" fill="currentColor"/>
</g>
</svg>
