<svg width="28" height="23" viewBox="0 0 28 23" fill="none" xmlns="http://www.w3.org/2000/svg">
<g id="Frame" clip-path="url(#clip0_117_1924)">
<path id="icon" d="M22.7817 20.2072H5.22249C4.60016 20.2084 4.00264 19.9698 3.56049 19.5434C3.11834 19.117 2.8675 18.5376 2.86279 17.9318V15.0056C3.62731 14.7255 4.28615 14.2255 4.75177 13.572C5.21739 12.9186 5.46775 12.1427 5.46957 11.3474C5.46816 10.5518 5.218 9.77551 4.75235 9.12169C4.2867 8.46787 3.62763 7.96756 2.86279 7.68728L2.86279 4.73882C2.86777 4.13305 3.11879 3.55382 3.56103 3.12766C4.00326 2.70149 4.60076 2.46303 5.223 2.46436H22.7817C23.4059 2.46341 24.0051 2.70368 24.4475 3.13241C24.6663 3.3422 24.84 3.59228 24.9585 3.86807C25.077 4.14387 25.138 4.43986 25.1378 4.73882V7.65356C24.3486 7.91874 23.6641 8.41696 23.1795 9.07882C22.695 9.74068 22.4346 10.5332 22.4346 11.346C22.4346 12.1587 22.695 12.9512 23.1795 13.6131C23.6641 14.2749 24.3486 14.7732 25.1378 15.0384V17.9328C25.1334 18.538 24.883 19.1168 24.4416 19.5429C24.0001 19.969 23.4033 20.2077 22.7817 20.2067V20.2072ZM8.93779 7.90005C8.66945 7.90044 8.41222 8.00439 8.22247 8.18912C8.03273 8.37384 7.92595 8.62427 7.92555 8.88551V14.7998C7.92582 15.0611 8.03253 15.3117 8.22229 15.4965C8.41205 15.6813 8.66936 15.7854 8.93779 15.7858H19.0628C19.3312 15.7854 19.5885 15.6813 19.7783 15.4965C19.9681 15.3117 20.0748 15.0611 20.075 14.7998V8.88551C20.0746 8.62427 19.9679 8.37384 19.7781 8.18912C19.5884 8.00439 19.3311 7.90044 19.0628 7.90005H8.93779ZM16.536 6.94632C16.6795 6.94646 16.8214 6.97629 16.9521 7.03383C17.0829 7.09138 17.1996 7.17532 17.2945 7.2801H18.6665L18.3817 6.16916C18.3497 6.04344 18.2926 5.92509 18.2136 5.82091C18.1346 5.71672 18.0352 5.62875 17.9212 5.56203C17.8072 5.49531 17.6808 5.45116 17.5492 5.43211C17.4176 5.41306 17.2835 5.41948 17.1545 5.45101L9.62043 7.2801H14.9364L16.3073 6.97211C16.3822 6.95502 16.459 6.94636 16.536 6.94632ZM17.616 14.6589H10.3846C10.384 14.2856 10.2314 13.9277 9.9602 13.6637C9.68898 13.3998 9.32129 13.2513 8.93779 13.2509V10.4349C9.32125 10.4344 9.68886 10.2859 9.96005 10.0219C10.2312 9.75801 10.3839 9.40018 10.3846 9.02686H17.6185C17.6191 9.40022 17.7717 9.75812 18.0429 10.0221C18.3142 10.286 18.6818 10.4345 19.0653 10.4349V13.2514C18.6819 13.2519 18.3143 13.4004 18.0431 13.6642C17.7718 13.928 17.619 14.2857 17.618 14.6589H17.616ZM13.999 10.5286C13.732 10.5286 13.471 10.6057 13.249 10.7501C13.027 10.8945 12.854 11.0998 12.7518 11.3399C12.6496 11.5801 12.6229 11.8444 12.675 12.0993C12.727 12.3543 12.8556 12.5884 13.0444 12.7722C13.2332 12.9561 13.4738 13.0812 13.7356 13.1319C13.9975 13.1826 14.269 13.1566 14.5156 13.0571C14.7623 12.9577 14.9732 12.7892 15.1215 12.5731C15.2698 12.3569 15.349 12.1028 15.349 11.8429C15.3486 11.4947 15.2065 11.1609 14.9537 10.9145C14.701 10.6682 14.3582 10.5294 14.0005 10.5286H13.999Z" fill="currentColor"/>
</g>
<defs>
<clipPath id="clip0_117_1924">
<rect width="27" height="23" fill="white" transform="translate(0.5)"/>
</clipPath>
</defs>
</svg>
