<svg xmlns="http://www.w3.org/2000/svg" width="34" height="34" viewBox="0 0 34 34">
  <defs>
    <style>
    </style>
  </defs>
  <g id="组_19" data-name="组 19" transform="translate(-64.379 -64.478)">
    <path id="路径_7" data-name="路径 7" class="cls-1" d="M294.013,296.864m-2.172,0a2.172,2.172,0,1,0,2.172-2.172A2.172,2.172,0,0,0,291.842,296.864Z" transform="translate(-218.825 -221.471)"/>
    <path id="路径_8" data-name="路径 8" class="cls-1" d="M97.9,95.7l-6.968-6.97a14.918,14.918,0,1,0-22.185,1.214,14.948,14.948,0,0,0,14.482,3.845,1.628,1.628,0,0,0-.856-3.141,11.671,11.671,0,1,1,5.171-3.006,2.549,2.549,0,0,0,.465,2.767L95.6,98a1.627,1.627,0,0,0,2.3-2.3Z" transform="translate(0 0)"/>
  </g>
</svg>
