<svg width="30" height="30" viewBox="0 0 30 30" fill="none" xmlns="http://www.w3.org/2000/svg">
<g id="&#232;&#128;&#129;&#232;&#153;&#142;&#230;&#156;&#186;">
<path id="Vector" d="M22.1574 4.26929C23.1751 4.26929 24.0001 5.09429 24.0001 6.11198V23.8881C24.0001 24.9058 23.1751 25.7308 22.1574 25.7308H6.11198C5.62327 25.7308 5.15457 25.5367 4.809 25.1911C4.46343 24.8455 4.26929 24.3768 4.26929 23.8881V6.11198C4.26929 5.09429 5.09429 4.26929 6.11198 4.26929H22.1574ZM25.5577 7.38467C25.8326 7.38479 26.0993 7.47837 26.314 7.65005C26.5286 7.82174 26.6785 8.06132 26.739 8.32945C26.7996 8.59758 26.7671 8.87832 26.647 9.12557C26.5269 9.37282 26.3263 9.57188 26.0781 9.69006L26.077 21.577C26.077 22.0983 25.881 22.6005 25.5279 22.984C25.1748 23.3675 24.6904 23.6041 24.1708 23.647L24.0001 23.6539V20.1924H25.0385V9.69121C24.8515 9.60254 24.6903 9.46743 24.5703 9.29877C24.4503 9.1301 24.3756 8.93351 24.3531 8.72775L24.3462 8.59621C24.3462 7.92698 24.8885 7.38467 25.5577 7.38467ZM19.327 19.8462C19.4406 19.8462 19.5532 19.8686 19.6582 19.912C19.7632 19.9555 19.8586 20.0193 19.939 20.0996C20.0194 20.18 20.0831 20.2754 20.1266 20.3804C20.1701 20.4854 20.1925 20.5979 20.1925 20.7116C20.1925 20.8253 20.1701 20.9378 20.1266 21.0428C20.0831 21.1478 20.0194 21.2432 19.939 21.3236C19.8586 21.4039 19.7632 21.4677 19.6582 21.5112C19.5532 21.5546 19.4406 21.577 19.327 21.577H9.28852C9.17486 21.577 9.06231 21.5546 8.9573 21.5112C8.85229 21.4677 8.75687 21.4039 8.6765 21.3236C8.59612 21.2432 8.53236 21.1478 8.48886 21.0428C8.44536 20.9378 8.42297 20.8253 8.42297 20.7116C8.42297 20.5979 8.44536 20.4854 8.48886 20.3804C8.53236 20.2754 8.59612 20.18 8.6765 20.0996C8.75687 20.0193 8.85229 19.9555 8.9573 19.912C9.06231 19.8686 9.17486 19.8462 9.28852 19.8462H19.327ZM20.3458 8.34006C20.8281 8.34006 21.2193 8.73121 21.2193 9.21352V16.717C21.2193 16.9486 21.1273 17.1708 20.9635 17.3346C20.7997 17.4984 20.5775 17.5904 20.3458 17.5904H8.09083C7.85917 17.5904 7.637 17.4984 7.47319 17.3346C7.30939 17.1708 7.21736 16.9486 7.21736 16.717V9.21352C7.21736 8.73121 7.60852 8.34006 8.09083 8.34006H20.3458ZM13.6154 9.72236L8.60083 9.72352V16.2047L13.6154 16.2035V9.72236ZM19.8347 9.72352L15.0001 9.72236V16.2035L19.8347 16.2047V9.72352Z" fill="currentColor"/>
<path id="Vector_2" d="M19.6582 19.912C19.5532 19.8685 19.4406 19.8462 19.327 19.8462H9.28852C9.17486 19.8462 9.06231 19.8685 8.9573 19.912C8.85229 19.9555 8.75687 20.0192 8.6765 20.0996C8.59612 20.18 8.53236 20.2754 8.48886 20.3804C8.44536 20.4854 8.42297 20.5979 8.42297 20.7116C8.42297 20.8252 8.44536 20.9378 8.48886 21.0428C8.53236 21.1478 8.59612 21.2432 8.6765 21.3236C8.75687 21.4039 8.85229 21.4677 8.9573 21.5111C9.06231 21.5546 9.17486 21.577 9.28852 21.577H19.327C19.4406 21.577 19.5532 21.5546 19.6582 21.5111C19.7632 21.4677 19.8586 21.4039 19.939 21.3236C20.0194 21.2432 20.0831 21.1478 20.1266 21.0428C20.1701 20.9378 20.1925 20.8252 20.1925 20.7116C20.1925 20.5979 20.1701 20.4854 20.1266 20.3804C20.0831 20.2754 20.0194 20.18 19.939 20.0996C19.8586 20.0192 19.7632 19.9555 19.6582 19.912Z" fill="currentColor"/>
<path id="Subtract" d="M20.3457 8.33984C20.828 8.33984 21.2197 8.73156 21.2197 9.21387V16.7168C21.2197 16.9484 21.1277 17.1712 20.9639 17.335C20.8001 17.4988 20.5774 17.5908 20.3457 17.5908H8.09082C7.85935 17.5908 7.63739 17.4985 7.47363 17.335C7.30983 17.1712 7.21777 16.9485 7.21777 16.7168V9.21387C7.21777 8.73158 7.60853 8.33987 8.09082 8.33984H20.3457ZM8.60059 9.72363V16.2051L13.6152 16.2031V9.72266L8.60059 9.72363ZM15 16.2031L19.835 16.2051V9.72363L15 9.72266V16.2031Z" fill="currentColor"/>
</g>
</svg>
