<svg xmlns="http://www.w3.org/2000/svg" width="38" height="38" viewBox="0 0 38 38">
  <defs>
    <style>
      .cls-1, .cls-2 {
        fill: currentColor;
      }

      .cls-1 {
        opacity: 0.2;
      }
    </style>
  </defs>
  <g id="组_52" data-name="组 52" transform="translate(2173 10722.426)">
    <path id="路径_76" data-name="路径 76" class="cls-1" d="M82.956,64.091a19,19,0,1,0,19,19,19,19,0,0,0-19-19Z" transform="translate(-2236.956 -10786.517)"/>
    <path id="路径_77" data-name="路径 77" class="cls-2" d="M80.666,92.346a2.063,2.063,0,0,1-2.506.319,2.474,2.474,0,0,1-.411-.425l-8.485-8.485a1.936,1.936,0,0,1,0-2.81,2.065,2.065,0,0,1,2.916.106l7.026,7.026L92.486,74.8a2.065,2.065,0,0,1,2.917-.106,1.936,1.936,0,0,1,0,2.81L80.667,92.346h0Z" transform="translate(-2236.956 -10786.517)"/>
  </g>
</svg>
