<svg width="20" height="20" viewBox="0 0 20 20" fill="none" xmlns="http://www.w3.org/2000/svg">
<g id="&#230;&#177;&#135;&#230;&#128;&#187; 1">
<rect id="Rectangle 67" x="2.35291" y="2.35303" width="15.2941" height="12.9412" rx="2" fill="currentColor"/>
<path id="Vector" d="M16.047 15.4758H4.19998C2.76598 15.4758 1.59998 14.3098 1.59998 12.8758V4.21182C1.59998 2.77782 2.76598 1.61182 4.19998 1.61182H16.047C17.481 1.61182 18.647 2.77782 18.647 4.21182V12.8758C18.647 14.3088 17.48 15.4758 16.047 15.4758ZM4.19998 2.81182C3.42798 2.81182 2.79998 3.43982 2.79998 4.21182V12.8758C2.79998 13.6478 3.42798 14.2758 4.19998 14.2758H16.047C16.819 14.2758 17.447 13.6478 17.447 12.8758V4.21182C17.447 3.43982 16.819 2.81182 16.047 2.81182H4.19998ZM13.916 18.4078H6.32998C5.99898 18.4078 5.72998 18.1388 5.72998 17.8078C5.72998 17.4768 5.99898 17.2078 6.32998 17.2078H13.916C14.247 17.2078 14.516 17.4768 14.516 17.8078C14.516 18.1388 14.248 18.4078 13.916 18.4078Z" fill="white"/>
<path id="Vector_2" d="M6.33999 11.0651C6.00899 11.0651 5.73999 10.7961 5.73999 10.4651V8.68407C5.73999 8.35307 6.00899 8.08407 6.33999 8.08407C6.67099 8.08407 6.93999 8.35307 6.93999 8.68407V10.4651C6.93999 10.7961 6.67199 11.0651 6.33999 11.0651ZM10.046 11.0651C9.71499 11.0651 9.44599 10.7961 9.44599 10.4651V6.24307C9.44599 5.91207 9.71499 5.64307 10.046 5.64307C10.377 5.64307 10.646 5.91207 10.646 6.24307V10.4651C10.646 10.7961 10.377 11.0651 10.046 11.0651ZM13.789 11.0651C13.458 11.0651 13.189 10.7961 13.189 10.4651V7.59307C13.189 7.26207 13.458 6.99307 13.789 6.99307C14.12 6.99307 14.389 7.26207 14.389 7.59307V10.4651C14.389 10.7961 14.121 11.0651 13.789 11.0651Z" fill="#FF6625"/>
</g>
</svg>
