<?xml version="1.0" encoding="UTF-8"?>
<svg version="1.1" xmlns="http://www.w3.org/2000/svg" width="1024" height="1024">
<path d="M0 0 C337.92 0 675.84 0 1024 0 C1024 337.92 1024 675.84 1024 1024 C686.08 1024 348.16 1024 0 1024 C0 686.08 0 348.16 0 0 Z " fill="#363739" transform="translate(0,0)"/>
<path d="M0 0 C-0.43951172 10.30514724 -2.85206688 20.16203104 -5.12109375 30.1796875 C-5.54472592 32.07384784 -5.96773125 33.96814847 -6.39015198 35.86257935 C-7.50635104 40.86073513 -8.63075294 45.85700971 -9.75701904 50.85290527 C-10.86288164 55.76416911 -11.96158892 60.67703113 -13.06054688 65.58984375 C-14.3703004 71.44454046 -15.68151757 77.2988879 -17.00033569 83.15155029 C-19.31022924 93.40877618 -21.58858966 103.6718588 -23.82080078 113.94628906 C-24.50500405 117.0805336 -25.18984486 120.21463815 -25.8748951 123.34869766 C-26.31297845 125.36183323 -26.74802048 127.37563317 -27.17992973 129.39010239 C-27.77538177 132.16685089 -28.38086755 134.94123343 -28.98852539 137.71533203 C-29.16338282 138.54476948 -29.33824024 139.37420692 -29.51839638 140.22877884 C-29.94820677 142.16783675 -30.46531022 144.08720378 -31 146 C-33 147 -33 147 -35.80859375 146.14453125 C-37.00613281 145.70496094 -38.20367188 145.26539063 -39.4375 144.8125 C-45.38654798 142.72668796 -51.33057256 141.10697526 -57.5 139.8125 C-58.2211499 139.65821533 -58.9422998 139.50393066 -59.68530273 139.3449707 C-73.96489923 136.44886698 -87.85443621 135.6280809 -102.375 135.6875 C-103.29930817 135.68932281 -104.22361633 135.69114563 -105.17593384 135.69302368 C-119.9726757 135.74205707 -134.4043572 136.37073218 -149 139 C-149.9684082 139.17160645 -150.93681641 139.34321289 -151.93457031 139.52001953 C-192.14859226 146.89456731 -229.96154438 166.43764568 -259.56640625 194.6875 C-261.54910769 196.57154375 -263.55320155 198.29643298 -265.6875 200 C-270.46497216 204.04870522 -274.15945888 209.08798018 -278 214 C-278.75667969 214.92941406 -279.51335937 215.85882812 -280.29296875 216.81640625 C-292.35226017 232.07213636 -301.27171917 251.08159312 -299.78125 270.91015625 C-298.30953159 280.9716158 -293.80914086 290.21978446 -285.8828125 296.7421875 C-262.7384004 313.97109491 -232.30738012 313.69946999 -205 310 C-167.89586998 304.40508607 -130.88322658 289.80027393 -101 267 C-99.58460938 265.92298828 -99.58460938 265.92298828 -98.140625 264.82421875 C-85.5708134 255.24634769 -85.5708134 255.24634769 -76 243 C-75.34 243 -74.68 243 -74 243 C-73.75636719 242.45472656 -73.51273438 241.90945313 -73.26171875 241.34765625 C-71.71214357 238.46439098 -69.81554356 236.02663203 -67.8125 233.4375 C-63.53644076 227.80962119 -59.62143059 222.0707799 -56 216 C-55.61166992 215.35289062 -55.22333984 214.70578125 -54.82324219 214.0390625 C-46.46940379 199.99380996 -40.77711591 185.7848924 -37 169.8515625 C-36.835 169.15675781 -36.67 168.46195313 -36.5 167.74609375 C-36.1614304 166.30981802 -35.8282524 164.87226248 -35.5 163.43359375 C-35.06124555 161.60659281 -34.53721522 159.8005104 -34 158 C-33.34 157.67 -32.68 157.34 -32 157 C-30.82646911 195.11802195 -37.49294336 236.69147477 -61 268 C-61.66 268 -62.32 268 -63 268 C-63.37125 269.175625 -63.37125 269.175625 -63.75 270.375 C-65.20780864 273.43639814 -66.07993473 273.58706519 -69 275 C-69.14695312 275.8353125 -69.14695312 275.8353125 -69.296875 276.6875 C-70.35013142 280.15154334 -72.74351861 282.36927453 -75.1875 284.9375 C-75.72358887 285.50597656 -76.25967773 286.07445312 -76.81201172 286.66015625 C-88.20566587 298.60294179 -100.32757505 308.74194843 -114 318 C-114.9288501 318.64195312 -114.9288501 318.64195312 -115.87646484 319.296875 C-140.99382509 336.4644688 -174.49295599 343.66422474 -204 349 C-205.25369385 349.24556641 -205.25369385 349.24556641 -206.53271484 349.49609375 C-219.69277828 352.03727496 -232.82808025 352.30881996 -246.1875 352.375 C-247.02627686 352.38294586 -247.86505371 352.39089172 -248.72924805 352.39907837 C-283.19102419 352.64984587 -317.00002586 343.49255824 -343 320 C-357.54737373 305.66177381 -368.22988554 285.73148137 -369 265 C-369.06316406 263.73027344 -369.12632812 262.46054687 -369.19140625 261.15234375 C-370.49121648 223.27094636 -350.71521235 188.20040115 -325.78857422 160.91308594 C-316.94398382 151.45277877 -307.90557513 142.10264085 -297.68359375 134.12109375 C-295.07488014 132.05918474 -292.57387133 129.91257119 -290.07202148 127.72412109 C-282.03341718 120.70386641 -273.63836354 114.26230543 -265 108 C-263.96504395 107.24952393 -263.96504395 107.24952393 -262.90917969 106.48388672 C-235.22211417 86.49909303 -205.79807432 68.90844661 -175.06982422 54.00830078 C-172.86418732 52.93383978 -170.66881556 51.83978386 -168.47265625 50.74609375 C-120.51202452 27.11248125 -54.22412808 -1.42035466 0 0 Z " fill="#B99F5E" transform="translate(769,338)"/>
<path d="M0 0 C1.47122642 0.00056958 1.47122642 0.00056958 2.97217458 0.00115067 C4.0993024 -0.00084038 5.22643022 -0.00283143 6.38771343 -0.00488281 C7.64157689 -0.00196997 8.89544035 0.00094287 10.18729967 0.00394398 C11.50714151 0.00308955 12.82698334 0.00223513 14.18682039 0.00135481 C17.86728021 -0.00089264 21.54771121 0.00313454 25.22816736 0.00813287 C29.19069533 0.01243362 33.15322156 0.01099122 37.11575121 0.0102306 C43.98674782 0.00970513 50.85773496 0.01285437 57.72872919 0.01846844 C67.66314976 0.02658027 77.59756574 0.02919833 87.53198927 0.03045643 C103.64821004 0.03264745 119.76442576 0.03930889 135.88064378 0.04875904 C151.54014874 0.05793187 167.19965232 0.06501333 182.85915941 0.06926686 C183.82369626 0.06952958 184.78823311 0.0697923 185.78199834 0.07006299 C190.62058272 0.07136798 195.4591671 0.0726317 200.29775149 0.07387489 C240.46674321 0.08424906 280.6357293 0.10186873 320.80471605 0.1241985 C318.37525737 2.55365718 316.18259871 3.29892065 312.99221605 4.5616985 C309.01167419 6.13908092 305.44591425 7.87684851 301.80471605 10.1241985 C300.12048711 10.86914591 298.43487208 11.61162327 296.73486131 12.31981617 C289.7657373 15.22417797 282.95503684 18.45375512 276.17190355 21.7648235 C275.26953462 22.20409168 274.3671657 22.64335987 273.43745226 23.09593922 C230.95656411 43.32881275 230.95656411 43.32881275 190.54397386 67.29412037 C187.56761437 69.28260439 184.5739301 71.24322754 181.57815355 73.2023235 C170.99790947 80.1504586 160.71685868 87.25565329 150.80471605 95.1241985 C148.87123271 96.56709651 146.93365932 98.00452863 144.99221605 99.4366985 C137.41416411 105.10775713 130.09368667 111.08804774 122.80471605 117.1241985 C122.18773851 117.63386158 121.57076097 118.14352467 120.93508714 118.66863209 C113.54060978 124.80370941 106.53936198 131.16952347 99.88992113 138.11247975 C98.56278198 139.48406047 97.18777211 140.80902249 95.80471605 142.1241985 C95.14471605 142.1241985 94.48471605 142.1241985 93.80471605 142.1241985 C93.56881761 142.69009693 93.33291918 143.25599537 93.0898723 143.83904225 C91.51057289 146.64721902 89.57785599 148.46802331 87.24221605 150.6866985 C60.58722523 176.88343732 37.25138633 214.46894898 36.45315355 252.68157154 C36.22284035 286.51122191 49.47580799 313.11165943 72.80471605 337.1241985 C75.36654877 339.60099112 78.03390221 341.88457695 80.80471605 344.1241985 C81.72639574 344.87185475 82.64807543 345.619511 83.5976848 346.3898235 C92.25226194 353.27779623 101.45279422 359.23304774 110.80471605 365.1241985 C106.94202516 366.41176213 103.84525438 365.73078824 99.92971605 365.0616985 C99.1403264 364.9273943 98.35093675 364.7930901 97.53762621 364.65471607 C62.24914473 358.26527341 26.85205926 343.19449633 4.9648723 313.6398235 C-5.6000717 298.01202887 -9.41153122 281.07947712 -9.50778395 262.4366985 C-9.5134236 261.40367604 -9.51906325 260.37065357 -9.52487379 259.3063274 C-9.40957436 247.02400678 -6.75157393 235.82154253 -3.19528395 224.1241985 C-2.83563551 222.8660735 -2.47598707 221.6079485 -2.1054402 220.3116985 C2.14042917 205.70145008 8.59666467 192.24529129 15.55471605 178.7491985 C15.99501146 177.88995777 16.43530687 177.03071705 16.88894457 176.14543873 C22.11083331 166.18879471 27.99175184 156.81247218 33.80471605 147.1241985 C-2.16528395 146.7941985 -38.13528395 146.4641985 -75.19528395 146.1241985 C-73.61406621 141.38054527 -71.83366116 137.16056506 -69.57028395 132.7491985 C-68.93201478 131.49151199 -68.29400981 130.23369139 -67.65622145 128.975761 C-67.28658278 128.24905201 -66.91694411 127.52234303 -66.53610426 126.77361256 C-63.77483535 121.31744173 -61.05052722 115.842621 -58.31814772 110.3719402 C-56.39288931 106.51796991 -54.46585209 102.66488915 -52.53903395 98.8116985 C-51.73564036 97.20493175 -50.93225501 95.59816088 -50.1288777 93.991386 C-48.50648187 90.74659433 -46.88408603 87.50180266 -45.2616902 84.257011 C-44.86249373 83.45857777 -44.46329726 82.66014454 -44.05200392 81.83751637 C-43.25629691 80.24618326 -42.46046102 78.65491458 -41.66449171 77.06371266 C-39.76171217 73.25953989 -37.86098081 69.45437693 -35.96530348 65.64665943 C-35.43217543 64.57701954 -35.43217543 64.57701954 -34.88827711 63.48577076 C-34.23092501 62.16669928 -33.57435249 60.84723881 -32.91879469 59.52727467 C-30.71181935 55.1014121 -28.41152479 50.73036943 -26.07028395 46.3741985 C-21.73733118 38.30297896 -17.53435759 30.18995765 -13.82028395 21.8116985 C-11.71130559 17.10440366 -9.37067336 12.54882391 -6.94528395 7.9991985 C-6.41475416 7.00279347 -6.41475416 7.00279347 -5.87350661 5.98625904 C-2.7350366 0.15473508 -2.7350366 0.15473508 0 0 Z " fill="#B5995D" transform="translate(331.19528394937515,319.8758015036583)"/>
</svg>
