<svg t="1760426592268" class="icon" viewBox="0 0 1421 1024" version="1.1" xmlns="http://www.w3.org/2000/svg" p-id="8638" width="200" height="200"><path d="M1409.023638 50.907905c-45.622385 3.338223-90.6884 11.405596-134.919858 22.811193-106.544961 26.983972-208.638957 65.651725-308.785656 109.883184-62.869872 27.818528-121.28878 63.982613-180.264059 98.477588-31.713121 18.638413-61.757131 39.780494-91.244771 61.757131-65.92991 49.238794-131.30345 99.033958-185.271393 161.90383-57.306167 66.764466-100.981255 141.039935-110.995925 230.615594-3.894594 35.051345-1.390926 69.824504 11.961967 102.928552h3.616408c0-0.834556 0.278185-1.669112 0.278185-2.503668 0.278185-0.834556 0.556371-1.669112 0.834556-2.225482-0.278185 0.834556-0.556371 1.390926-0.834556 2.225482-0.278185 0.834556-0.278185 1.669112-0.278185 2.503668h-3.616408c0.278185 1.112741 0.834556 1.947297 1.112741 3.060038 1.390926 9.180114 4.450964 17.247487 10.292855 24.480304 13.909264 30.04401 33.104048 56.471611 58.697093 77.891877 44.509644 37.276827 97.364847 56.749796 153.001902 69.824505 37.833198 8.901929 76.222766 9.458299 114.890519 9.458299 36.164086 0 71.771801-6.954632 107.379516-11.405596 81.230101-10.01467 157.452866-33.938604 228.668297-73.719098 1.669112-0.556371 3.616409-1.112741 5.007335-1.947297 85.124694-49.238794 149.663678-117.950557 191.94784-206.969845 38.945939-81.786471 51.742461-168.858462 52.855202-262.05053-20.307525 91.522956-43.953274 148.550937-85.402879 210.586254-21.420266 31.991307-47.291497 60.64439-74.275469 87.628361-14.187449 14.187449-31.713121 26.427601-48.126053 38.945939-71.771801 48.404238-150.220049 80.67373-233.953817 100.146699-69.268134 16.134746-138.536267 20.307525-207.8044-1.112741-43.953274-13.631079-78.170062-36.998642-94.026624-82.064656-3.616409-10.57104-9.458299-21.698452-8.345558-31.991307 2.225482-19.472969 6.398261-38.945939 12.796523-57.862537 25.31486-73.997283 74.553654-129.634338 134.363488-176.09128 36.442271-28.374898 77.613692-51.186091 119.619668-72.049986 150.776419-75.110024 401.977723-57.584352 475.140451-31.156751 8.345558 3.060038 11.405596 0 13.074708-8.067373 3.616409-18.638413 8.067373-36.998642 12.240153-55.637055 23.923934-108.214072 47.847867-216.428145 72.328171-324.642217 1.947297-12.240152-1.390926-14.465634-11.961967-13.631079z" fill="#997B46" p-id="8639"></path><path d="M475.712038 994.234175c-26.427601-20.02934-52.577017-39.780494-75.110024-64.538983-28.096713-30.60038-52.577017-63.148058-70.937246-100.1467-10.292855-20.863896-22.811193-41.727791-26.705786-64.260798-8.345558-44.231459-4.450964-89.019288 6.398261-132.972562 12.240152-50.62972 35.32953-96.530291 63.982614-139.092638 30.04401-45.066015 65.651725-86.237435 105.154034-123.514263 28.931269-27.540342 58.140723-54.524314 89.575659-79.282803 47.569682-37.555012 98.755773-70.102689 147.994566-105.43222 23.367563-16.691117 49.795164-30.04401 75.38821-43.953273 35.885901-19.751155 72.328172-38.667753 108.492258-57.862538 3.060038-1.112741 6.120076-1.947297 8.901929-3.616408 49.516979-25.871231 100.146699-49.238794 151.610975-70.937245 5.007335-2.225482 10.01467-4.172779 17.803858-7.511003-4.450964-0.556371-5.28552-0.834556-6.120077-0.834556C783.941324 0 496.297749 0.278185 208.375988 0c-8.623744 0-13.352893 2.781853-16.969302 10.292855C128.536814 137.423526 65.666942 264.276012 2.518884 390.850312c-4.72915 9.458299-3.060038 11.405596 7.232817 11.405597 50.07335-0.278185 100.146699 0.278185 150.220049 0.55637 38.111383 0 75.94458-0.278185 114.055963-0.278185 5.841891 0 11.961967 0 17.803858 0.278185 3.060038 0.278185 7.511002-1.669112 8.345558 1.947297 0.834556 3.060038 0 8.067373-2.225482 10.292855-15.30019 15.856561-23.645748 36.442271-35.051345 54.8025-2.225482 3.338223-4.72915 6.676447-6.954632 10.292855-29.209454 51.464276-48.960609 106.544961-63.426242 163.572942-9.736485 38.945939-15.856561 77.891877-9.180115 117.950557 11.961967 70.380875 46.456941 126.5743 104.875849 167.745721l1.112742 0.834556c1.112741 0.556371 1.947297 1.112741 3.060038 1.669112 14.187449 11.961967 30.322195 21.142081 47.013311 29.209454 25.036675 11.961967 50.907905 21.698452 77.891877 30.044009 23.367563 7.232817 47.013312 11.683782 71.493616 18.916599-2.503667-8.345558-8.067373-11.961967-13.074708-15.856561z" fill="#997B46" p-id="8640"></path></svg>