<svg width="16" height="16" viewBox="0 0 16 16" fill="none" xmlns="http://www.w3.org/2000/svg">
<g id="Iconly/Bold/Tick Square">
<g id="Tick Square">
<path id="Tick Square_2" d="M14.6664 5.27979L15.1664 5.27979L15.1664 5.27975L14.6664 5.27979ZM1.33337 5.27979L0.833374 5.27975V5.27979H1.33337ZM10.8929 1.3335V1.8335C11.9014 1.8335 12.709 2.18467 13.2656 2.76715C13.8241 3.35165 14.1663 4.20771 14.1664 5.27982L14.6664 5.27979L15.1664 5.27975C15.1663 3.99207 14.7517 2.87499 13.9886 2.07629C13.2234 1.27558 12.1444 0.833496 10.8929 0.833496V1.3335ZM14.6664 5.27979H14.1664V10.7271H14.6664H15.1664V5.27979H14.6664ZM14.6664 10.7271H14.1664C14.1664 11.7952 13.8244 12.6495 13.2659 13.2334C12.7092 13.8152 11.9015 14.1665 10.8929 14.1665V14.6665V15.1665C12.1444 15.1665 13.2234 14.7244 13.9885 13.9247C14.7516 13.1269 15.1664 12.0116 15.1664 10.7271H14.6664ZM10.8929 14.6665V14.1665H5.11365V14.6665V15.1665H10.8929V14.6665ZM5.11365 14.6665V14.1665C4.10502 14.1665 3.29532 13.8152 2.73686 13.2329C2.17665 12.6489 1.83337 11.7946 1.83337 10.7271H1.33337H0.833374C0.833374 12.0122 1.25023 13.1276 2.01517 13.9251C2.78184 14.7245 3.86227 15.1665 5.11365 15.1665V14.6665ZM1.33337 10.7271H1.83337V5.27979H1.33337H0.833374V10.7271H1.33337ZM1.33337 5.27979L1.83337 5.27982C1.83345 4.20833 2.17699 3.35234 2.73717 2.76761C3.29556 2.18475 4.10509 1.8335 5.11365 1.8335V1.3335V0.833496C3.86233 0.833496 2.7818 1.27549 2.01507 2.07583C1.25012 2.8743 0.833463 3.99145 0.833374 5.27975L1.33337 5.27979ZM5.11365 1.3335V1.8335H10.8929V1.3335V0.833496H5.11365V1.3335Z" fill="currentColor"/>
</g>
</g>
</svg>
