<svg width="23" height="23" viewBox="0 0 23 23" fill="none" xmlns="http://www.w3.org/2000/svg">
<g id="&#230;&#183;&#187;&#229;&#138;&#160;&#228;&#186;&#186;&#229;&#145;&#152; 1" clip-path="url(#clip0_95_2336)">
<path id="Vector" d="M15.5378 11.3451C14.9178 11.1067 14.2773 10.9252 13.6244 10.8029C14.8283 10.3117 15.8242 9.41746 16.4417 8.27315C17.0592 7.12884 17.26 5.80554 17.0097 4.52957C16.7594 3.25359 16.0736 2.1042 15.0696 1.27797C14.0655 0.451743 12.8056 0 11.5053 0C10.205 0 8.94513 0.451743 7.94109 1.27797C6.93704 2.1042 6.25123 3.25359 6.00094 4.52957C5.75065 5.80554 5.95142 7.12884 6.56894 8.27315C7.18645 9.41746 8.18233 10.3117 9.38626 10.8029C6.82504 11.2941 4.51494 12.6622 2.85313 14.672C1.19133 16.6819 0.281661 19.2079 0.280518 21.8158C0.280518 21.9811 0.346182 22.1396 0.463065 22.2565C0.579947 22.3734 0.738475 22.4391 0.903772 22.4391C1.06907 22.4391 1.2276 22.3734 1.34448 22.2565C1.46136 22.1396 1.52703 21.9811 1.52703 21.8158C1.52675 20.1964 1.92088 18.6012 2.67537 17.1682C3.42985 15.7353 4.52197 14.5076 5.85733 13.5914C7.19269 12.6752 8.7311 12.098 10.3396 11.9097C11.948 11.7214 13.5782 11.9276 15.089 12.5106C15.1656 12.5401 15.2472 12.5542 15.3291 12.5521C15.4111 12.5501 15.4919 12.5319 15.5668 12.4986C15.6418 12.4653 15.7094 12.4176 15.7659 12.3582C15.8224 12.2988 15.8667 12.2288 15.8962 12.1523C15.9256 12.0757 15.9397 11.9941 15.9377 11.9122C15.9356 11.8302 15.9174 11.7494 15.8841 11.6745C15.8509 11.5995 15.8031 11.5319 15.7437 11.4754C15.6843 11.4189 15.6143 11.3746 15.5378 11.3451ZM7.13632 5.6112C7.13632 4.74832 7.39219 3.90483 7.87158 3.18737C8.35097 2.46991 9.03234 1.91073 9.82953 1.58052C10.6267 1.25031 11.5039 1.16391 12.3502 1.33225C13.1965 1.50059 13.9739 1.9161 14.584 2.52625C15.1942 3.1364 15.6097 3.91377 15.778 4.76006C15.9464 5.60636 15.86 6.48357 15.5298 7.28077C15.1996 8.07796 14.6404 8.75933 13.9229 9.23872C13.2055 9.71811 12.362 9.97398 11.4991 9.97398C10.342 9.97398 9.23232 9.51433 8.41414 8.69615C7.59596 7.87797 7.13632 6.76828 7.13632 5.6112Z" fill="currentColor"/>
<path id="Vector_2" d="M17.4193 15.875H23.2891C23.5686 15.875 23.7083 16.0347 23.7083 16.3542C23.7083 16.6736 23.5686 16.8333 23.2891 16.8333H17.4193C17.1398 16.8333 17 16.6736 17 16.3542C17 16.0347 17.1398 15.875 17.4193 15.875Z" fill="#D560FF"/>
<path id="Vector_3" d="M19.875 19.2891V13.4193C19.875 13.1398 20.0347 13 20.3542 13C20.6736 13 20.8333 13.1398 20.8333 13.4193V19.2891C20.8333 19.5686 20.6736 19.7083 20.3542 19.7083C20.0347 19.7083 19.875 19.5686 19.875 19.2891Z" fill="#D560FF"/>
<path id="Vector 28" d="M0.958252 22.0415H16.2916" stroke="#9069E6" stroke-linecap="round"/>
</g>
<defs>
<clipPath id="clip0_95_2336">
<rect width="23" height="23" fill="white"/>
</clipPath>
</defs>
</svg>
