<svg xmlns="http://www.w3.org/2000/svg" width="20" height="14.977" viewBox="0 0 20 14.977">
  <defs>
    <style>
      
    </style>
  </defs>
  <path id="路径_179" data-name="路径 179" class="cls-1" d="M82,184a11.2,11.2,0,0,1,6.883,2.636C90.746,188.142,92,190,92,191.488s-1.181,3.361-2.959,4.842a10.693,10.693,0,0,1-14.084,0C73.179,194.847,72,192.979,72,191.488s1.254-3.346,3.115-4.851A11.19,11.19,0,0,1,82,184Zm0,2.192a9.043,9.043,0,0,0-5.506,2.148c-1.4,1.132-2.3,2.474-2.3,3.149,0,.717.842,2.051,2.17,3.158a8.5,8.5,0,0,0,11.277,0c1.328-1.106,2.17-2.44,2.17-3.158,0-.677-.9-2.016-2.3-3.147A9.039,9.039,0,0,0,82,186.192Zm.045,1.872a3.425,3.425,0,1,1-3.425,3.425A3.425,3.425,0,0,1,82.045,188.063Zm0,2.1a1.324,1.324,0,1,0,1.324,1.324A1.324,1.324,0,0,0,82.045,190.165Z" transform="translate(-72 -184)"/>
</svg>
