<svg xmlns="http://www.w3.org/2000/svg" width="20" height="18.77" viewBox="0 0 20 18.77">
  <defs>
    <style>
      
    </style>
  </defs>
  <path id="路径_181" data-name="路径 181" class="cls-1" d="M191.708,123.53,185.1,112.25a3.746,3.746,0,0,0-6.552.159l-5.893,11.28a3.745,3.745,0,0,0,3.321,5.479h12.5A3.745,3.745,0,0,0,191.708,123.53Zm-10.46-7.993q0-.855.976-.915a.914.914,0,0,1,.976.915v.551l-.734,7.451H182.1l-.851-7.451Zm.979,11.3a1.016,1.016,0,0,1-1.037-.976c.039-.528.367-.815.976-.854q.976.063,1.1.854A.97.97,0,0,1,182.228,126.836Z" transform="translate(-172.228 -110.397)"/>
</svg>
